<svg width="78" height="113" viewBox="0 0 78 113" fill="none" xmlns="http://www.w3.org/2000/svg">
<path d="M21.4997 108.998H56.4991M38.9994 4C19.6698 4 4 19.6698 4 38.9994C4 46.0838 6.10488 52.6767 9.72337 58.1866C15.2877 66.6595 18.0675 70.8933 18.4286 71.526C21.6413 77.1547 21.0498 75.1694 21.4541 81.6378C21.4996 82.3649 21.4997 83.4655 21.4997 85.6652C21.4997 88.8868 24.1113 91.4985 27.3329 91.4985L50.6659 91.4985C53.8875 91.4985 56.4991 88.8868 56.4991 85.6652C56.4991 83.4655 56.4991 82.3649 56.5445 81.6378C56.9489 75.1694 56.3539 77.1547 59.5667 71.526C59.9278 70.8933 62.7123 66.6595 68.2766 58.1866C71.8951 52.6767 74 46.0838 74 38.9994C74 19.6698 58.329 4 38.9994 4Z" stroke="#1F6EFF" stroke-width="8" stroke-linecap="round" stroke-linejoin="round"/>
</svg>
