<svg width="615" height="421" viewBox="0 0 615 421" fill="none" xmlns="http://www.w3.org/2000/svg">
<rect x="0.75" y="0.75" width="613.5" height="419.5" rx="29.25" fill="white"/>
<rect x="0.75" y="0.75" width="613.5" height="419.5" rx="29.25" stroke="#1F6EFF" stroke-width="1.5"/>
<path d="M105.1 92.5625C104.367 88.3145 100.949 85.873 96.6523 85.873C90.8418 85.873 86.7891 90.3164 86.7891 98.3242C86.7891 106.43 90.8906 110.775 96.6523 110.775C100.852 110.775 104.27 108.432 105.1 104.281H111.496C110.52 111.068 104.953 116.488 96.5547 116.488C87.2285 116.488 80.3926 109.701 80.3926 98.3242C80.3926 86.8984 87.3262 80.1602 96.5547 80.1602C104.367 80.1602 110.422 84.7012 111.496 92.5625H105.1ZM140.793 92.5625C140.061 88.3145 136.643 85.873 132.346 85.873C126.535 85.873 122.482 90.3164 122.482 98.3242C122.482 106.43 126.584 110.775 132.346 110.775C136.545 110.775 139.963 108.432 140.793 104.281H147.189C146.213 111.068 140.646 116.488 132.248 116.488C122.922 116.488 116.086 109.701 116.086 98.3242C116.086 86.8984 123.02 80.1602 132.248 80.1602C140.061 80.1602 146.115 84.7012 147.189 92.5625H140.793ZM151.096 85.9707V80.6484H179.27V85.9707H168.381V116H162.033V85.9707H151.096ZM188.938 80.6484L198.117 108.529H198.508L207.736 80.6484H214.719L202.219 116H194.406L181.955 80.6484H188.938ZM361.838 76.2051V93.7832H368.625V98.2754H361.838V120.346H356.467V76.2051H361.838ZM353.049 82.9922V87.3379H327.023V82.9922H337.473V76.8398H342.893V82.9922H353.049ZM340.207 90.2188C346.555 90.2188 351.291 94.5156 351.291 100.619C351.291 106.723 346.555 110.971 340.207 110.971C333.762 110.971 329.025 106.723 329.074 100.619C329.025 94.5156 333.762 90.2188 340.207 90.2188ZM340.207 94.6621C336.74 94.6621 334.25 97.0059 334.25 100.619C334.25 104.232 336.74 106.527 340.207 106.479C343.576 106.527 346.066 104.232 346.115 100.619C346.066 97.0059 343.576 94.6621 340.207 94.6621ZM407.346 76.2051V120.346H401.877V76.2051H407.346ZM394.162 80.8926C394.162 94.0273 389.084 105.209 373.605 112.533L370.773 108.188C382.321 102.694 387.692 95.2236 388.645 85.1895H373.02V80.8926H394.162Z" fill="black"/>
<path d="M269.309 110.58V115.023H228.977V110.58H246.408V100.424H251.828V110.58H269.309ZM265.842 79.7695V84.2129H251.926C252.097 90.5605 258.64 96.3955 267.697 97.7383L265.549 102.035C258.078 100.668 251.975 96.7373 249.143 91.2441C246.286 96.8105 240.231 100.888 232.883 102.279L230.734 97.9824C239.548 96.4932 246.042 90.5605 246.213 84.2129H232.346V79.7695H265.842ZM308.957 76.2051V120.346H303.537V76.2051H308.957ZM272.385 108.09C275.9 108.065 279.88 108.065 284.055 107.943V103.891C279.074 103.109 275.852 100.058 275.852 95.8828C275.852 90.9023 280.246 87.582 286.691 87.582C293.186 87.582 297.678 90.9023 297.678 95.8828C297.678 100.033 294.431 103.061 289.475 103.842V107.748C293.356 107.577 297.263 107.26 300.949 106.771L301.34 110.824C291.623 112.484 281.125 112.582 273.166 112.582L272.385 108.09ZM300.168 81.2832V85.5801H273.312V81.2832H284.055V76.3516H289.475V81.2832H300.168ZM286.691 91.7324C283.371 91.7812 280.979 93.2949 281.027 95.8828C280.979 98.4219 283.371 99.9355 286.691 99.8867C290.158 99.9355 292.453 98.4219 292.453 95.8828C292.453 93.2949 290.158 91.7812 286.691 91.7324Z" fill="#1F6EFF"/>
</svg>
