<svg width="160" height="64" viewBox="0 0 160 64" fill="none" xmlns="http://www.w3.org/2000/svg">
<rect width="160" height="64" rx="15" fill="#1F6EFF"/>
<path d="M78.4375 41.6641V45.2188H46.1719V41.6641H60.1172V33.5391H64.4531V41.6641H78.4375ZM75.6641 17.0156V20.5703H64.5312C64.668 25.6484 69.9023 30.3164 77.1484 31.3906L75.4297 34.8281C69.4531 33.7344 64.5703 30.5898 62.3047 26.1953C60.0195 30.6484 55.1758 33.9102 49.2969 35.0234L47.5781 31.5859C54.6289 30.3945 59.8242 25.6484 59.9609 20.5703H48.8672V17.0156H75.6641ZM110.156 14.1641V49.4766H105.82V14.1641H110.156ZM80.8984 39.6719C83.7109 39.6523 86.8945 39.6523 90.2344 39.5547V36.3125C86.25 35.6875 83.6719 33.2461 83.6719 29.9062C83.6719 25.9219 87.1875 23.2656 92.3438 23.2656C97.5391 23.2656 101.133 25.9219 101.133 29.9062C101.133 33.2266 98.5352 35.6484 94.5703 36.2734V39.3984C97.6758 39.2617 100.801 39.0078 103.75 38.6172L104.062 41.8594C96.2891 43.1875 87.8906 43.2656 81.5234 43.2656L80.8984 39.6719ZM103.125 18.2266V21.6641H81.6406V18.2266H90.2344V14.2812H94.5703V18.2266H103.125ZM92.3438 26.5859C89.6875 26.625 87.7734 27.8359 87.8125 29.9062C87.7734 31.9375 89.6875 33.1484 92.3438 33.1094C95.1172 33.1484 96.9531 31.9375 96.9531 29.9062C96.9531 27.8359 95.1172 26.625 92.3438 26.5859Z" fill="white"/>
</svg>
