<svg width="1106" height="739" viewBox="0 0 1106 739" fill="none" xmlns="http://www.w3.org/2000/svg">
<rect x="0.5" y="0.5" width="1105" height="738" rx="9.5" fill="white"/>
<rect x="0.5" y="0.5" width="1105" height="738" rx="9.5" stroke="#1F6EFF"/>
<path d="M371.146 460.096V467.918H340.473V482.508H330.805V467.918H298.549V460.096H371.146ZM361.83 423.973V452.713H307.777V423.973H361.83ZM317.27 431.619V445.066H352.162V431.619H317.27ZM363.148 490.33V498.24H307.338V475.213H317.094V490.33H363.148Z" fill="#1F6EFF"/>
<path d="M442.514 420.369V499.91H432.67V420.369H442.514ZM399.711 426.17C411.664 426.17 420.365 437.068 420.453 454.207C420.365 471.521 411.664 482.332 399.711 482.332C387.67 482.332 378.969 471.521 378.969 454.207C378.969 437.068 387.67 426.17 399.711 426.17ZM399.711 434.959C392.943 434.959 388.373 442.078 388.373 454.207C388.373 466.424 392.943 473.543 399.711 473.543C406.391 473.543 410.961 466.424 410.961 454.207C410.961 442.078 406.391 434.959 399.711 434.959ZM538.227 420.369V438.299H549.301V446.385H538.227V464.93H528.471V420.369H538.227ZM514.232 425.379V433.289H488.568V453.152C503.51 453.196 511.815 452.669 521.264 450.691L522.318 458.602C511.947 460.711 502.631 461.326 485.316 461.326H478.9V425.379H514.232ZM538.842 468.973V476.795H496.83V490.945H540.336V498.855H487.074V468.973H538.842ZM620.053 420.369V470.203H610.297V461.854H598.344V453.943H610.297V446.297H598.432V438.387H610.297V420.369H620.053ZM597.904 427.84V435.574H553.52V427.84H571.273V419.754H581.029V427.84H597.904ZM576.02 438.475C586.83 438.475 594.564 444.363 594.652 453.064C594.564 462.029 586.83 467.918 576.02 468.006C565.209 467.918 557.562 462.029 557.65 453.064C557.562 444.363 565.209 438.475 576.02 438.475ZM576.02 445.77C570.395 445.77 566.703 448.494 566.791 453.064C566.703 457.811 570.395 460.623 576.02 460.623C581.645 460.623 585.512 457.811 585.512 453.064C585.512 448.494 581.645 445.77 576.02 445.77ZM582.611 474.246C582.523 480.223 585.644 486.419 592.367 490.33C599.003 486.199 602.211 479.563 602.299 474.246V472.225H611.879V474.246C611.879 481.541 616.889 488.748 627.348 491.473L622.689 498.768C614.999 496.395 609.77 491.648 606.957 485.672C604.364 491.517 599.662 496.702 592.367 499.383C584.94 496.834 580.282 491.78 577.777 485.848C574.921 491.604 569.735 496.263 562.309 498.768L557.738 491.473C567.934 488.572 573.031 481.102 573.119 474.246V472.225H582.611V474.246ZM652.836 426.17C663.603 426.17 671.557 435.135 672.963 449.637H688.08V420.369H697.748V499.91H688.08V457.547H673.051C671.996 472.884 663.91 482.332 652.836 482.332C640.883 482.332 632.445 471.521 632.445 454.207C632.445 437.068 640.883 426.17 652.836 426.17ZM652.836 434.959C646.244 434.959 641.762 442.078 641.85 454.207C641.762 466.424 646.244 473.543 652.836 473.543C659.428 473.543 663.822 466.424 663.91 454.207C663.822 442.078 659.428 434.959 652.836 434.959ZM781.508 482.156V490.154H708.91V482.156H725.697V462.029C719.369 458.426 715.546 452.757 715.59 445.682C715.502 433.025 727.982 424.676 745.033 424.676C762.172 424.676 774.652 433.025 774.652 445.682C774.652 452.625 770.961 458.206 764.809 461.854V482.156H781.508ZM745.033 432.41C733.168 432.41 725.082 437.42 725.17 445.682C725.082 453.855 733.168 458.953 745.033 458.953C756.898 458.953 765.072 453.855 765.072 445.682C765.072 437.42 756.898 432.41 745.033 432.41ZM735.365 482.156H754.877V465.545C751.845 466.248 748.549 466.6 745.033 466.6C741.605 466.6 738.354 466.248 735.365 465.633V482.156ZM803.041 428.367L802.074 473.279H792.143L791.088 428.367H803.041ZM797.152 492.703C793.373 492.703 790.297 489.627 790.297 485.848C790.297 482.156 793.373 479.08 797.152 479.08C800.756 479.08 803.92 482.156 803.92 485.848C803.92 489.627 800.756 492.703 797.152 492.703Z" fill="black"/>
<path d="M524.875 241.25H508.002C497.501 241.25 492.246 241.25 488.236 243.294C484.708 245.091 481.841 247.958 480.044 251.486C478 255.496 478 260.751 478 271.252V323.752C478 334.253 478 339.501 480.044 343.511C481.841 347.039 484.708 349.911 488.236 351.708C492.243 353.75 497.491 353.75 507.971 353.75L598.029 353.75C608.509 353.75 613.75 353.75 617.757 351.708C621.285 349.911 624.161 347.039 625.958 343.511C628 339.504 628 334.264 628 323.784V271.221C628 260.741 628 255.493 625.958 251.486C624.161 247.958 621.285 245.091 617.757 243.294C613.746 241.25 608.503 241.25 598.002 241.25H524.875ZM524.875 241.25V214.251C524.875 198.097 537.063 185 552.097 185C559.822 185 566.789 188.457 571.743 194.011" stroke="#1F6EFF" stroke-width="20" stroke-linecap="round" stroke-linejoin="round"/>
<path d="M527.036 241.25H508.002C497.501 241.25 492.246 241.25 488.236 243.294C484.708 245.091 481.841 247.958 480.044 251.486C478 255.496 478 260.751 478 271.252V323.752C478 334.253 478 339.501 480.044 343.511C481.841 347.039 484.708 349.911 488.236 351.708C492.243 353.75 497.491 353.75 507.971 353.75H598.029C608.509 353.75 613.75 353.75 617.757 351.708C621.285 349.911 624.161 347.039 625.958 343.511C628 339.504 628 334.264 628 323.784V271.221C628 260.741 628 255.493 625.958 251.486C624.161 247.958 621.285 245.091 617.757 243.294C613.746 241.25 608.503 241.25 598.002 241.25H578.959M527.036 241.25H578.959M527.036 241.25C525.841 241.25 524.875 240.281 524.875 239.087V213.125C524.875 197.592 537.467 185 553 185C568.533 185 581.125 197.592 581.125 213.125V239.087C581.125 240.281 580.154 241.25 578.959 241.25" stroke="#1F6EFF" stroke-width="20" stroke-linecap="round" stroke-linejoin="round"/>
</svg>
