<svg width="160" height="64" viewBox="0 0 160 64" fill="none" xmlns="http://www.w3.org/2000/svg">
<rect width="160" height="64" rx="15" fill="#1F6EFF"/>
<path d="M69.72 16.96H73.04V37.32H69.72V16.96ZM72.12 25.44H78.4V28.24H72.12V25.44ZM46.64 32.48H49.44C56.88 32.48 61.08 32.24 65.92 31.28L66.28 33.96C61.32 35 57.04 35.24 49.44 35.24H46.64V32.48ZM46.64 19.32H62.56V22H49.92V34.12H46.64V19.32ZM50.44 39.32H73.36V42.04H53.76V51.2H50.44V39.32ZM50.44 49.96H74.04V52.64H50.44V49.96ZM108.117 16.96H111.437V53.12H108.117V16.96ZM97.5169 20.84H100.797C100.797 31.32 96.0769 40.48 83.9969 46.4L82.2369 43.72C92.6769 38.68 97.5169 31 97.5169 21.4V20.84ZM83.8769 20.84H98.9569V23.56H83.8769V20.84Z" fill="white"/>
</svg>
