<svg width="1920" height="475" viewBox="0 0 1920 475" fill="none" xmlns="http://www.w3.org/2000/svg">
<rect width="1920" height="475" fill="#1F6EFF"/>
<path d="M220.25 111.1V151H212.05V111.1H220.25ZM174.05 150.8V112.4H181.4V143.65H187.05V112.4H194.4V143.65H200.25V112.4H207.3V150.8H174.05ZM182.35 130.25L186.05 128.85V126.1L182.35 127.5V130.25ZM195.4 129.75L199.1 128.35V125.6L195.4 127V129.75ZM266.338 111.1V151H256.438V111.1H266.338ZM225.988 150.7V127.25H240.538V120.35H225.988V112.45H250.488V135.1H236.138V142.85H251.388V150.7H225.988ZM298.248 112.4H305.298V150.8H272.048V112.4H279.398V143.65H285.048V112.4H292.398V143.65H298.248V112.4ZM280.348 130.25L284.048 128.85V126.1L280.348 127.5V130.25ZM293.398 129.75L297.098 128.35V125.6L293.398 127V129.75ZM308.448 151V111.1H316.798V125.65H320.998V134.55H316.798V151H308.448ZM363.848 111.1V151H353.948V111.1H363.848ZM323.498 150.7V127.25H338.048V120.35H323.498V112.45H347.998V135.1H333.648V142.85H348.898V150.7H323.498ZM401.258 111.8H410.058V136.2H396.508V141.55H412.008V149.45H370.008V141.55H385.458V136.2H371.908V111.8H380.708V129.1H387.058V111.8H394.908V129.1H401.258V111.8ZM381.908 122.5V119.75L385.858 118.35V121.1L381.908 122.5ZM396.008 122V119.25L399.958 117.85V120.6L396.008 122Z" fill="white"/>
<path d="M178.836 198.895C178.836 201.121 180.281 203.211 182.996 204.07L181.824 205.77C179.92 205.125 178.553 203.836 177.801 202.195C177.02 204.07 175.594 205.545 173.562 206.258L172.391 204.559C175.242 203.562 176.648 201.219 176.668 198.699V197.02H178.836V198.895ZM186.512 196.082V200.379H188.973V202.176H186.512V206.648H184.344V196.082H186.512ZM180.77 207.039C184.422 207.02 186.668 208.27 186.688 210.359C186.668 212.488 184.422 213.719 180.77 213.719C177.078 213.719 174.793 212.488 174.793 210.359C174.793 208.27 177.078 207.02 180.77 207.039ZM180.77 208.738C178.348 208.738 176.961 209.324 176.961 210.359C176.961 211.453 178.348 212 180.77 212C183.191 212 184.539 211.453 184.539 210.359C184.539 209.324 183.191 208.738 180.77 208.738ZM205.184 198.445V200.203H190.594V198.445H196.824V196.316H198.973V198.445H205.184ZM206.004 210.086V211.844H189.871V210.086H196.824V207.918C193.768 207.674 191.922 206.453 191.941 204.5C191.922 202.371 194.207 201.102 197.898 201.102C201.531 201.102 203.836 202.371 203.836 204.5C203.836 206.443 201.98 207.664 198.973 207.898V210.086H206.004ZM197.898 202.801C195.496 202.82 194.148 203.387 194.168 204.5C194.148 205.633 195.496 206.199 197.898 206.219C200.262 206.199 201.609 205.633 201.609 204.5C201.609 203.387 200.262 202.82 197.898 202.801ZM209.305 212.156C208.465 212.156 207.781 211.473 207.781 210.633C207.781 209.812 208.465 209.129 209.305 209.129C210.105 209.129 210.809 209.812 210.809 210.633C210.809 211.473 210.105 212.156 209.305 212.156ZM209.305 204.578C208.465 204.578 207.781 203.895 207.781 203.055C207.781 202.234 208.465 201.551 209.305 201.551C210.105 201.551 210.809 202.234 210.809 203.055C210.809 203.895 210.105 204.578 209.305 204.578ZM219.539 197.723V201.961H221.121V197.723H222.898V209.559H217.762V197.723H219.539ZM219.539 207.801H221.121V203.66H219.539V207.801ZM225.77 197.723V201.961H227.293V197.723H229.031V209.559H223.973V197.723H225.77ZM225.77 207.801H227.293V203.66H225.77V207.801ZM232.566 196.082V213.738H230.477V196.082H232.566ZM249.344 196.082V213.758H247.195V196.082H249.344ZM243.914 197.625V204.246H237.84V207.801C240.623 207.781 243.025 207.645 245.77 207.176L245.965 208.953C242.957 209.48 240.32 209.578 237.156 209.578H235.613V202.527H241.707V199.383H235.594V197.625H243.914ZM266.395 196.082V202.723H268.367V204.559H266.395V213.738H264.246V196.082H266.395ZM253.934 197.703V201.941H255.418V197.703H257.215V209.578H252.137V197.703H253.934ZM253.934 207.801H255.418V203.66H253.934V207.801ZM259.773 197.703V201.941H261.258V197.703H263.055V209.578H258.016V197.703H259.773ZM259.773 207.801H261.258V203.66H259.773V207.801ZM283.914 196.082V213.758H281.766V196.082H283.914ZM278.484 197.625V204.246H272.41V207.801C275.193 207.781 277.596 207.645 280.34 207.176L280.535 208.953C277.527 209.48 274.891 209.578 271.727 209.578H270.184V202.527H276.277V199.383H270.164V197.625H278.484ZM289.715 197.332V200.125H291.805V197.332H293.875V206.082H295.164V197.332H297.273V200.125H299.383V197.332H301.492V206.277H295.594V209.832H302.586V211.609H286.492V209.832H293.445V206.277H287.586V197.332H289.715ZM289.715 204.52H291.805V201.844H289.715V204.52ZM297.273 204.52H299.383V201.844H297.273V204.52ZM312.488 195.867V213.992H310.164V195.867H312.488ZM335.242 196.082V213.738H333.172V204.734H331.18V212.84H329.188V196.414H331.18V202.996H333.172V196.082H335.242ZM327.195 198.172V199.93H322.781V207.781C324.705 207.762 326.287 207.664 328.074 207.332L328.23 209.109C326.102 209.539 324.246 209.598 321.785 209.617H320.594V198.172H327.195ZM353.465 209.949V211.707H337.332V209.949H341.512V206.316H338.719V204.559H341.199V199.324H338.66V197.586H352.059V199.324H349.48V204.559H352V206.316H349.207V209.949H353.465ZM343.367 204.559H347.332V199.324H343.367V204.559ZM343.68 209.949H347.039V206.316H343.68V209.949ZM361.512 212.156C360.672 212.156 359.988 211.473 359.988 210.633C359.988 209.812 360.672 209.129 361.512 209.129C362.312 209.129 363.016 209.812 363.016 210.633C363.016 211.473 362.312 212.156 361.512 212.156ZM361.512 204.578C360.672 204.578 359.988 203.895 359.988 203.055C359.988 202.234 360.672 201.551 361.512 201.551C362.312 201.551 363.016 202.234 363.016 203.055C363.016 203.895 362.312 204.578 361.512 204.578ZM384.344 196.102V208.992H382.176V202.527H379.051V200.77H382.176V196.102H384.344ZM384.793 211.629V213.387H372.762V207.859H374.93V211.629H384.793ZM376.043 199.617C376.043 201.746 377.469 203.934 380.203 204.832L379.109 206.57C377.137 205.896 375.74 204.559 374.969 202.879C374.188 204.744 372.713 206.219 370.633 206.941L369.52 205.184C372.332 204.266 373.836 201.941 373.836 199.598V199.129H370.164V197.371H379.695V199.129H376.043V199.617ZM402.957 205.984V207.742H399.031V213.738H396.824V207.742H392.918V213.738H390.691V207.742H386.824V205.984H402.957ZM394.852 196.707C398.602 196.727 401.219 198.25 401.219 200.652C401.219 203.016 398.602 204.52 394.852 204.52C391.082 204.52 388.504 203.016 388.523 200.652C388.504 198.25 391.082 196.727 394.852 196.707ZM394.852 198.465C392.352 198.465 390.73 199.266 390.75 200.652C390.73 202 392.352 202.801 394.852 202.801C397.352 202.801 398.973 202 398.973 200.652C398.973 199.266 397.352 198.465 394.852 198.465ZM410.828 199.676C410.828 201.863 412.332 204.012 415.145 204.891L414.031 206.59C412.029 205.936 410.574 204.617 409.773 202.938C408.973 204.764 407.479 206.219 405.379 206.941L404.266 205.223C407.098 204.285 408.621 202 408.641 199.676V199.168H404.832V197.43H414.539V199.168H410.828V199.676ZM418.836 196.102V208.914H416.648V196.102H418.836ZM419.324 211.629V213.387H407.156V207.742H409.344V211.629H419.324Z" fill="white"/>
<path d="M188.68 277.926V279.684H181.668V285.719H179.52V279.684H172.586V277.926H188.68ZM187.195 269.078V270.797H181.902C182.029 272.73 184.354 274.586 187.84 275.035L187.059 276.734C184.051 276.314 181.707 274.938 180.633 273.023C179.559 274.938 177.215 276.314 174.246 276.734L173.426 275.035C176.893 274.586 179.217 272.73 179.383 270.797H174.07V269.078H187.195ZM206.004 281.793V283.551H189.871V281.793H196.785V277.711H198.934V281.793H206.004ZM198.992 270.445C198.992 273.121 201.668 275.758 205.379 276.344L204.441 278.141C201.453 277.574 199.012 275.865 197.84 273.551C196.668 275.855 194.246 277.594 191.277 278.141L190.34 276.344C194.031 275.758 196.668 273.102 196.688 270.445V269.156H198.992V270.445ZM214.051 284.156C213.211 284.156 212.527 283.473 212.527 282.633C212.527 281.812 213.211 281.129 214.051 281.129C214.852 281.129 215.555 281.812 215.555 282.633C215.555 283.473 214.852 284.156 214.051 284.156ZM214.051 276.578C213.211 276.578 212.527 275.895 212.527 275.055C212.527 274.234 213.211 273.551 214.051 273.551C214.852 273.551 215.555 274.234 215.555 275.055C215.555 275.895 214.852 276.578 214.051 276.578ZM238.211 278.355V280.074H231.18V285.738H229.031V280.074H222.078V278.355H238.211ZM226.18 268.785V270.953H234.07V268.785H236.258V276.52H224.031V268.785H226.18ZM226.18 274.762H234.07V272.672H226.18V274.762ZM245.711 271.207C245.691 273.531 247.156 275.738 249.93 276.637L248.797 278.355C246.834 277.691 245.447 276.363 244.676 274.664C243.885 276.539 242.43 278.004 240.379 278.727L239.168 277.008C242.078 276.07 243.523 273.688 243.523 271.188V269.176H245.711V271.207ZM253.309 268.082V273.297H255.77V275.133H253.309V281.051H251.141V268.082H253.309ZM254.012 283.629V285.387H242V279.781H244.227V283.629H254.012ZM266.531 269.098V270.191C266.531 271.324 266.531 272.906 266.102 274.879L263.973 274.703C264.285 273.111 264.354 271.881 264.383 270.875H257.527V269.098H266.531ZM262.078 273.004V276.188C263.914 276.119 265.779 276.002 267.488 275.797L267.605 277.32C263.934 277.945 259.852 278.043 256.668 278.043L256.473 276.285C257.537 276.285 258.709 276.275 259.93 276.246V273.004H262.078ZM270.75 268.082V272.594H273.035V274.41H270.75V278.941H268.523V268.082H270.75ZM264.832 279.137C268.562 279.156 270.887 280.367 270.887 282.379C270.887 284.469 268.562 285.68 264.832 285.68C261.102 285.68 258.777 284.469 258.777 282.379C258.777 280.367 261.102 279.156 264.832 279.137ZM264.832 280.816C262.391 280.816 260.984 281.383 260.984 282.379C260.984 283.453 262.391 283.98 264.832 283.98C267.254 283.98 268.641 283.453 268.66 282.379C268.641 281.383 267.254 280.816 264.832 280.816ZM288.738 279.352V285.738H286.57V281.07H276.707V279.352H288.738ZM288.738 268.082V278.512H286.57V276.168H282.43C281.59 277.105 280.32 277.672 278.855 277.672C276.199 277.672 274.188 275.875 274.188 273.336C274.188 270.836 276.199 269.039 278.855 269.059C280.311 269.049 281.58 269.596 282.41 270.523H286.57V268.082H288.738ZM278.855 270.895C277.332 270.895 276.258 271.871 276.258 273.336C276.258 274.859 277.332 275.816 278.855 275.836C280.301 275.816 281.395 274.859 281.414 273.336C281.395 271.871 280.301 270.895 278.855 270.895ZM283.348 274.41H286.57V272.301H283.367C283.436 272.633 283.484 272.975 283.484 273.336C283.484 273.707 283.436 274.068 283.348 274.41ZM297.918 272.32C297.898 275.562 299.598 278.805 302.469 280.035L301.18 281.773C299.148 280.836 297.654 278.961 296.844 276.656C296.033 279.146 294.52 281.178 292.371 282.184L291.043 280.367C293.992 279.098 295.711 275.719 295.711 272.32V269.508H297.918V272.32ZM305.926 268.082V285.758H303.738V268.082H305.926ZM327.195 268.082V272.379H329.656V274.156H327.195V278.434H325.027V268.082H327.195ZM322.312 269.293C322.312 273.941 319.285 277.223 314.07 278.707L313.211 276.949C317.215 275.855 319.588 273.697 319.969 271.051H314.012V269.293H322.312ZM321.492 278.648C325.066 278.648 327.391 280.016 327.391 282.184C327.391 284.391 325.066 285.719 321.492 285.719C317.938 285.719 315.574 284.391 315.594 282.184C315.574 280.016 317.938 278.648 321.492 278.648ZM321.492 280.348C319.168 280.348 317.723 281.012 317.742 282.184C317.723 283.336 319.168 284.02 321.492 284.02C323.816 284.02 325.262 283.336 325.262 282.184C325.262 281.012 323.816 280.348 321.492 280.348ZM337.078 272.32C337.078 275.602 338.641 278.824 341.453 280.055L340.145 281.793C338.143 280.816 336.736 278.941 335.984 276.637C335.213 279.068 333.777 281.09 331.746 282.125L330.379 280.367C333.25 279.02 334.852 275.621 334.871 272.32V269.508H337.078V272.32ZM345.359 268.082V285.758H343.211V275.543H339.5V273.785H343.211V268.082H345.359ZM361.961 269.156V270.738C361.961 272.389 361.961 274.195 361.492 276.695H363.934V278.453H356.922V285.758H354.734V278.453H347.84V276.695H359.285C359.773 274.293 359.793 272.496 359.793 270.914H349.734V269.156H361.961ZM383.699 268.082V274.977H386.316V276.793H383.699V285.699H381.531V268.082H383.699ZM379.031 269.918C379.031 275.113 376.883 279.664 371.004 282.555L369.773 280.875C374.07 278.736 376.395 275.729 376.844 271.715H370.73V269.918H379.031ZM395.887 269.098V274.332H390.008V276.305C393.006 276.295 395.057 276.197 397.469 275.777L397.703 277.516C395.066 277.965 392.781 278.082 389.285 278.082H387.84V272.652H393.758V270.855H387.82V269.098H395.887ZM401.082 268.102V272.418H403.562V274.215H401.082V278.824H398.914V268.102H401.082ZM401.082 279.664V285.719H398.914V281.402H389.324V279.664H401.082ZM419.637 268.082V285.738H417.566V276.734H415.574V284.84H413.582V268.414H415.574V274.996H417.566V268.082H419.637ZM411.59 270.172V271.93H407.176V279.781C409.1 279.762 410.682 279.664 412.469 279.332L412.625 281.109C410.496 281.539 408.641 281.598 406.18 281.617H404.988V270.172H411.59ZM437.859 281.891V283.688H421.727V281.891H428.68V279.02H423.641V273.238H433.797V271.051H423.602V269.293H435.945V274.957H425.809V277.242H436.355V279.02H430.828V281.891H437.859ZM450.086 269.859V284H447.527V272.34H447.449L444.148 274.449V272.125L447.645 269.859H450.086ZM458.66 284.195C455.633 284.195 453.484 282.555 453.426 280.172H455.984C456.062 281.305 457.195 282.047 458.66 282.047C460.223 282.047 461.336 281.188 461.336 279.938C461.336 278.668 460.242 277.75 458.406 277.75H457.137V275.797H458.406C459.91 275.797 460.965 274.957 460.945 273.727C460.965 272.535 460.066 271.734 458.68 271.734C457.352 271.734 456.199 272.477 456.16 273.668H453.719C453.777 271.285 455.926 269.664 458.699 269.664C461.57 269.664 463.426 271.422 463.406 273.59C463.426 275.172 462.371 276.324 460.828 276.637V276.754C462.82 277.027 463.953 278.297 463.934 280.074C463.953 282.457 461.727 284.195 458.66 284.195ZM471.18 269.664C473.953 269.684 476.688 271.324 476.707 276.5C476.707 281.383 474.5 284.195 471.023 284.195C468.289 284.195 466.414 282.496 466.102 280.152H468.621C468.875 281.266 469.734 281.988 471.023 281.988C473.074 281.988 474.227 280.172 474.246 277.145H474.09C473.367 278.375 472.02 279.098 470.457 279.098C467.938 279.098 465.984 277.184 465.965 274.508C465.965 271.734 468.035 269.645 471.18 269.664ZM471.199 271.715C469.617 271.715 468.426 272.945 468.445 274.449C468.445 275.973 469.578 277.164 471.16 277.164C472.723 277.164 473.953 275.895 473.934 274.43C473.934 272.984 472.781 271.715 471.199 271.715ZM483.953 284.195C480.926 284.195 478.777 282.555 478.719 280.172H481.277C481.355 281.305 482.488 282.047 483.953 282.047C485.516 282.047 486.629 281.188 486.629 279.938C486.629 278.668 485.535 277.75 483.699 277.75H482.43V275.797H483.699C485.203 275.797 486.258 274.957 486.238 273.727C486.258 272.535 485.359 271.734 483.973 271.734C482.645 271.734 481.492 272.477 481.453 273.668H479.012C479.07 271.285 481.219 269.664 483.992 269.664C486.863 269.664 488.719 271.422 488.699 273.59C488.719 275.172 487.664 276.324 486.121 276.637V276.754C488.113 277.027 489.246 278.297 489.227 280.074C489.246 282.457 487.02 284.195 483.953 284.195Z" fill="white"/>
<path d="M187.371 232.102V245.051H185.203V240.676H181.004C180.154 241.623 178.904 242.199 177.488 242.199C174.832 242.199 172.82 240.285 172.82 237.688C172.82 235.051 174.832 233.156 177.488 233.156C178.895 233.156 180.135 233.723 180.984 234.66H185.203V232.102H187.371ZM187.82 247.629V249.387H175.789V243.723H177.957V247.629H187.82ZM177.488 235.09C175.965 235.09 174.891 236.105 174.891 237.688C174.891 239.25 175.965 240.266 177.488 240.266C178.934 240.266 180.027 239.25 180.047 237.688C180.027 236.105 178.934 235.09 177.488 235.09ZM181.941 236.418C182.049 236.818 182.117 237.238 182.117 237.688C182.117 238.117 182.059 238.527 181.961 238.918H185.203V236.418H181.941ZM198.602 233.098V238.332H192.723V240.305C195.721 240.295 197.771 240.197 200.184 239.777L200.418 241.516C197.781 241.965 195.496 242.082 192 242.082H190.555V236.652H196.473V234.855H190.535V233.098H198.602ZM203.797 232.102V236.418H206.277V238.215H203.797V242.824H201.629V232.102H203.797ZM203.797 243.664V249.719H201.629V245.402H192.039V243.664H203.797ZM221.961 232.082V249.758H219.793V240.734H216.375V238.977H219.793V232.082H221.961ZM213.602 237.688C213.582 240.363 215.184 243.215 217.977 244.445L216.805 246.105C214.783 245.246 213.318 243.479 212.547 241.359C211.766 243.605 210.311 245.49 208.289 246.398L207.117 244.719C209.871 243.469 211.434 240.461 211.434 237.688V236.77H207.645V235.031H211.453V232.453H213.621V235.031H217.312V236.77H213.602V237.688ZM231.336 248.156C230.496 248.156 229.812 247.473 229.812 246.633C229.812 245.812 230.496 245.129 231.336 245.129C232.137 245.129 232.84 245.812 232.84 246.633C232.84 247.473 232.137 248.156 231.336 248.156ZM231.336 240.578C230.496 240.578 229.812 239.895 229.812 239.055C229.812 238.234 230.496 237.551 231.336 237.551C232.137 237.551 232.84 238.234 232.84 239.055C232.84 239.895 232.137 240.578 231.336 240.578ZM245.184 248.195C241.785 248.195 239.754 245.559 239.754 240.93C239.754 236.32 241.785 233.664 245.184 233.664C248.562 233.664 250.613 236.32 250.613 240.93C250.613 245.559 248.582 248.195 245.184 248.195ZM245.184 246.066C246.961 246.066 248.055 244.328 248.055 240.93C248.055 237.551 246.941 235.773 245.184 235.773C243.426 235.773 242.312 237.551 242.312 240.93C242.312 244.328 243.406 246.066 245.184 246.066ZM257.957 248.195C254.559 248.195 252.527 245.559 252.527 240.93C252.527 236.32 254.559 233.664 257.957 233.664C261.336 233.664 263.387 236.32 263.387 240.93C263.387 245.559 261.355 248.195 257.957 248.195ZM257.957 246.066C259.734 246.066 260.828 244.328 260.828 240.93C260.828 237.551 259.715 235.773 257.957 235.773C256.199 235.773 255.086 237.551 255.086 240.93C255.086 244.328 256.18 246.066 257.957 246.066ZM270.73 248.195C267.332 248.195 265.301 245.559 265.301 240.93C265.301 236.32 267.332 233.664 270.73 233.664C274.109 233.664 276.16 236.32 276.16 240.93C276.16 245.559 274.129 248.195 270.73 248.195ZM270.73 246.066C272.508 246.066 273.602 244.328 273.602 240.93C273.602 237.551 272.488 235.773 270.73 235.773C268.973 235.773 267.859 237.551 267.859 240.93C267.859 244.328 268.953 246.066 270.73 246.066ZM284.734 241.086V243.137H278.367V241.086H284.734ZM292.371 248.195C288.973 248.195 286.941 245.559 286.941 240.93C286.941 236.32 288.973 233.664 292.371 233.664C295.75 233.664 297.801 236.32 297.801 240.93C297.801 245.559 295.77 248.195 292.371 248.195ZM292.371 246.066C294.148 246.066 295.242 244.328 295.242 240.93C295.242 237.551 294.129 235.773 292.371 235.773C290.613 235.773 289.5 237.551 289.5 240.93C289.5 244.328 290.594 246.066 292.371 246.066ZM305.145 248.195C301.746 248.195 299.715 245.559 299.715 240.93C299.715 236.32 301.746 233.664 305.145 233.664C308.523 233.664 310.574 236.32 310.574 240.93C310.574 245.559 308.543 248.195 305.145 248.195ZM305.145 246.066C306.922 246.066 308.016 244.328 308.016 240.93C308.016 237.551 306.902 235.773 305.145 235.773C303.387 235.773 302.273 237.551 302.273 240.93C302.273 244.328 303.367 246.066 305.145 246.066ZM317.918 248.195C314.52 248.195 312.488 245.559 312.488 240.93C312.488 236.32 314.52 233.664 317.918 233.664C321.297 233.664 323.348 236.32 323.348 240.93C323.348 245.559 321.316 248.195 317.918 248.195ZM317.918 246.066C319.695 246.066 320.789 244.328 320.789 240.93C320.789 237.551 319.676 235.773 317.918 235.773C316.16 235.773 315.047 237.551 315.047 240.93C315.047 244.328 316.141 246.066 317.918 246.066ZM330.691 248.195C327.293 248.195 325.262 245.559 325.262 240.93C325.262 236.32 327.293 233.664 330.691 233.664C334.07 233.664 336.121 236.32 336.121 240.93C336.121 245.559 334.09 248.195 330.691 248.195ZM330.691 246.066C332.469 246.066 333.562 244.328 333.562 240.93C333.562 237.551 332.449 235.773 330.691 235.773C328.934 235.773 327.82 237.551 327.82 240.93C327.82 244.328 328.914 246.066 330.691 246.066ZM344.695 241.086V243.137H338.328V241.086H344.695ZM352.332 248.195C348.934 248.195 346.902 245.559 346.902 240.93C346.902 236.32 348.934 233.664 352.332 233.664C355.711 233.664 357.762 236.32 357.762 240.93C357.762 245.559 355.73 248.195 352.332 248.195ZM352.332 246.066C354.109 246.066 355.203 244.328 355.203 240.93C355.203 237.551 354.09 235.773 352.332 235.773C350.574 235.773 349.461 237.551 349.461 240.93C349.461 244.328 350.555 246.066 352.332 246.066ZM365.105 248.195C361.707 248.195 359.676 245.559 359.676 240.93C359.676 236.32 361.707 233.664 365.105 233.664C368.484 233.664 370.535 236.32 370.535 240.93C370.535 245.559 368.504 248.195 365.105 248.195ZM365.105 246.066C366.883 246.066 367.977 244.328 367.977 240.93C367.977 237.551 366.863 235.773 365.105 235.773C363.348 235.773 362.234 237.551 362.234 240.93C362.234 244.328 363.328 246.066 365.105 246.066ZM377.879 248.195C374.48 248.195 372.449 245.559 372.449 240.93C372.449 236.32 374.48 233.664 377.879 233.664C381.258 233.664 383.309 236.32 383.309 240.93C383.309 245.559 381.277 248.195 377.879 248.195ZM377.879 246.066C379.656 246.066 380.75 244.328 380.75 240.93C380.75 237.551 379.637 235.773 377.879 235.773C376.121 235.773 375.008 237.551 375.008 240.93C375.008 244.328 376.102 246.066 377.879 246.066ZM390.652 248.195C387.254 248.195 385.223 245.559 385.223 240.93C385.223 236.32 387.254 233.664 390.652 233.664C394.031 233.664 396.082 236.32 396.082 240.93C396.082 245.559 394.051 248.195 390.652 248.195ZM390.652 246.066C392.43 246.066 393.523 244.328 393.523 240.93C393.523 237.551 392.41 235.773 390.652 235.773C388.895 235.773 387.781 237.551 387.781 240.93C387.781 244.328 388.875 246.066 390.652 246.066ZM406.336 231.867V249.992H404.012V231.867H406.336ZM428.582 232.082V249.758H426.395V232.082H428.582ZM419.07 233.371C421.727 233.371 423.66 235.793 423.68 239.602C423.66 243.449 421.727 245.852 419.07 245.852C416.395 245.852 414.461 243.449 414.461 239.602C414.461 235.793 416.395 233.371 419.07 233.371ZM419.07 235.324C417.566 235.324 416.551 236.906 416.551 239.602C416.551 242.316 417.566 243.898 419.07 243.898C420.555 243.898 421.57 242.316 421.57 239.602C421.57 236.906 420.555 235.324 419.07 235.324ZM438.66 233.996V238.586H440.711V232.395H442.781V248.879H440.711V240.344H438.66V245.188H431.727V233.996H438.66ZM433.758 235.715V243.469H436.629V235.715H433.758ZM446.414 232.082V249.738H444.324V232.082H446.414ZM453.465 232.648C456.141 232.648 458.133 234.309 458.152 236.633C458.133 238.977 456.141 240.617 453.465 240.617C450.77 240.617 448.777 238.977 448.777 236.633C448.777 234.309 450.77 232.648 453.465 232.648ZM453.465 234.445C451.98 234.445 450.887 235.285 450.887 236.633C450.887 238 451.98 238.859 453.465 238.859C454.949 238.859 456.043 238 456.043 236.633C456.043 235.285 454.949 234.445 453.465 234.445ZM463.172 232.082V241.008H460.984V232.082H463.172ZM463.172 241.77V246.379H453.621V247.805H463.699V249.523H451.492V244.777H461.004V243.469H451.453V241.77H463.172ZM472.645 248.156C471.805 248.156 471.121 247.473 471.121 246.633C471.121 245.812 471.805 245.129 472.645 245.129C473.445 245.129 474.148 245.812 474.148 246.633C474.148 247.473 473.445 248.156 472.645 248.156ZM472.645 240.578C471.805 240.578 471.121 239.895 471.121 239.055C471.121 238.234 471.805 237.551 472.645 237.551C473.445 237.551 474.148 238.234 474.148 239.055C474.148 239.895 473.445 240.578 472.645 240.578ZM481.277 248V246.164L486.277 241.34C487.703 239.914 488.445 239.074 488.445 237.883C488.445 236.574 487.41 235.734 486.023 235.734C484.559 235.734 483.621 236.652 483.641 238.078H481.219C481.199 235.402 483.211 233.664 486.043 233.664C488.934 233.664 490.887 235.383 490.887 237.766C490.887 239.367 490.105 240.656 487.332 243.273L484.812 245.773V245.871H491.102V248H481.277ZM498.543 248.195C495.145 248.195 493.113 245.559 493.113 240.93C493.113 236.32 495.145 233.664 498.543 233.664C501.922 233.664 503.973 236.32 503.973 240.93C503.973 245.559 501.941 248.195 498.543 248.195ZM498.543 246.066C500.32 246.066 501.414 244.328 501.414 240.93C501.414 237.551 500.301 235.773 498.543 235.773C496.785 235.773 495.672 237.551 495.672 240.93C495.672 244.328 496.766 246.066 498.543 246.066ZM506.102 248V246.164L511.102 241.34C512.527 239.914 513.27 239.074 513.27 237.883C513.27 236.574 512.234 235.734 510.848 235.734C509.383 235.734 508.445 236.652 508.465 238.078H506.043C506.023 235.402 508.035 233.664 510.867 233.664C513.758 233.664 515.711 235.383 515.711 237.766C515.711 239.367 514.93 240.656 512.156 243.273L509.637 245.773V245.871H515.926V248H506.102ZM523.289 248.195C520.262 248.195 518.113 246.555 518.055 244.172H520.613C520.691 245.305 521.824 246.047 523.289 246.047C524.852 246.047 525.965 245.188 525.965 243.938C525.965 242.668 524.871 241.75 523.035 241.75H521.766V239.797H523.035C524.539 239.797 525.594 238.957 525.574 237.727C525.594 236.535 524.695 235.734 523.309 235.734C521.98 235.734 520.828 236.477 520.789 237.668H518.348C518.406 235.285 520.555 233.664 523.328 233.664C526.199 233.664 528.055 235.422 528.035 237.59C528.055 239.172 527 240.324 525.457 240.637V240.754C527.449 241.027 528.582 242.297 528.562 244.074C528.582 246.457 526.355 248.195 523.289 248.195ZM536.004 248.195C532.605 248.195 530.574 245.559 530.574 240.93C530.574 236.32 532.605 233.664 536.004 233.664C539.383 233.664 541.434 236.32 541.434 240.93C541.434 245.559 539.402 248.195 536.004 248.195ZM536.004 246.066C537.781 246.066 538.875 244.328 538.875 240.93C538.875 237.551 537.762 235.773 536.004 235.773C534.246 235.773 533.133 237.551 533.133 240.93C533.133 244.328 534.227 246.066 536.004 246.066ZM549.305 233.859V248H546.746V236.34H546.668L543.367 238.449V236.125L546.863 233.859H549.305ZM557.879 248.195C554.734 248.195 552.508 246.516 552.508 244.211C552.508 242.414 553.836 240.949 555.535 240.676V240.598C554.051 240.285 553.035 238.996 553.035 237.453C553.035 235.266 555.086 233.664 557.879 233.664C560.652 233.664 562.703 235.266 562.703 237.453C562.703 238.996 561.668 240.285 560.203 240.598V240.676C561.902 240.949 563.25 242.414 563.25 244.211C563.25 246.516 561.004 248.195 557.879 248.195ZM557.879 246.184C559.539 246.184 560.633 245.285 560.633 243.977C560.633 242.648 559.461 241.672 557.879 241.672C556.277 241.672 555.105 242.648 555.125 243.977C555.105 245.285 556.199 246.184 557.879 246.184ZM557.879 239.777C559.246 239.777 560.223 238.918 560.223 237.688C560.223 236.496 559.266 235.656 557.879 235.656C556.473 235.656 555.516 236.477 555.516 237.688C555.516 238.918 556.492 239.777 557.879 239.777ZM572.293 246.027C570.477 246.027 569.09 244.602 569.09 242.023C569.09 239.406 570.535 238.039 572.293 238.039C573.562 238.039 574.188 238.801 574.441 239.348H574.539V238.215H576.434V243.43C576.453 244.094 576.727 244.406 577.254 244.406C578.25 244.406 578.895 243.254 578.895 241.516C578.914 238.117 576.512 235.891 572.957 235.891C569.324 235.891 567 238.527 567 242.023C567 245.812 569.031 248.195 572.898 248.176C574.285 248.176 575.32 248.059 576.434 247.766V249.562C575.398 249.855 574.188 250.031 572.898 250.031C567.996 250.031 565.145 246.906 565.145 242.023C565.125 237.395 568.367 234.035 572.957 234.035C577.566 234.035 580.77 237.18 580.77 241.457C580.77 244.426 579.266 246.125 577.078 246.125C575.779 246.125 574.803 245.5 574.617 244.621H574.52C574.266 245.168 573.621 246.027 572.293 246.027ZM572.879 244.23C573.992 244.25 574.578 243.371 574.578 242.023C574.578 240.676 573.992 239.816 572.879 239.816C571.805 239.816 571.199 240.734 571.219 242.023C571.199 243.312 571.824 244.23 572.879 244.23ZM583.016 248V233.859H585.516V239.133H585.613C586.004 238.371 586.766 237.258 588.641 237.258C591.102 237.258 593.035 239.172 593.035 242.707C593.035 246.203 591.141 248.195 588.66 248.195C586.824 248.195 586.004 247.102 585.613 246.32H585.457V248H583.016ZM585.457 242.688C585.457 244.758 586.355 246.145 587.957 246.145C589.617 246.145 590.496 244.699 590.496 242.688C590.496 240.715 589.637 239.289 587.957 239.289C586.355 239.289 585.457 240.637 585.457 242.688ZM601.004 240.422C600.848 239.621 600.184 239.113 599.129 239.113C598.055 239.113 597.273 239.641 597.293 240.363C597.273 240.91 597.723 241.32 598.797 241.574L600.594 241.945C602.605 242.395 603.562 243.312 603.582 244.836C603.562 246.828 601.824 248.215 599.051 248.215C596.355 248.215 594.754 247.004 594.5 244.973H597.039C597.195 245.871 597.898 246.32 599.051 246.32C600.242 246.32 601.043 245.832 601.043 245.051C601.043 244.445 600.555 244.055 599.5 243.82L597.801 243.449C595.828 243.059 594.812 242.023 594.812 240.5C594.812 238.547 596.492 237.258 599.09 237.258C601.629 237.258 603.191 238.488 603.367 240.422H601.004ZM611.492 240.422C611.336 239.621 610.672 239.113 609.617 239.113C608.543 239.113 607.762 239.641 607.781 240.363C607.762 240.91 608.211 241.32 609.285 241.574L611.082 241.945C613.094 242.395 614.051 243.312 614.07 244.836C614.051 246.828 612.312 248.215 609.539 248.215C606.844 248.215 605.242 247.004 604.988 244.973H607.527C607.684 245.871 608.387 246.32 609.539 246.32C610.73 246.32 611.531 245.832 611.531 245.051C611.531 244.445 611.043 244.055 609.988 243.82L608.289 243.449C606.316 243.059 605.301 242.023 605.301 240.5C605.301 238.547 606.98 237.258 609.578 237.258C612.117 237.258 613.68 238.488 613.855 240.422H611.492ZM615.965 248V237.395H618.348V239.191H618.484C618.914 237.98 619.988 237.258 621.395 237.258C622.84 237.258 623.855 237.98 624.266 239.191H624.383C624.852 238.02 626.023 237.258 627.566 237.258C629.5 237.258 630.867 238.508 630.867 240.871V248H628.387V241.262C628.387 239.934 627.586 239.348 626.57 239.348C625.34 239.348 624.637 240.188 624.637 241.379V248H622.215V241.164C622.215 240.07 621.473 239.348 620.418 239.348C619.344 239.348 618.465 240.227 618.465 241.555V248H615.965ZM634.793 248.156C633.953 248.156 633.27 247.473 633.27 246.633C633.27 245.812 633.953 245.129 634.793 245.129C635.594 245.129 636.297 245.812 636.297 246.633C636.297 247.473 635.594 248.156 634.793 248.156ZM641.199 241.789V248H638.699V233.859H641.141V239.191H641.277C641.766 238 642.781 237.258 644.422 237.258C646.629 237.258 648.074 238.684 648.074 241.242V248H645.594V241.633C645.594 240.188 644.812 239.367 643.504 239.367C642.156 239.367 641.199 240.246 641.199 241.789ZM656.453 240.422C656.297 239.621 655.633 239.113 654.578 239.113C653.504 239.113 652.723 239.641 652.742 240.363C652.723 240.91 653.172 241.32 654.246 241.574L656.043 241.945C658.055 242.395 659.012 243.312 659.031 244.836C659.012 246.828 657.273 248.215 654.5 248.215C651.805 248.215 650.203 247.004 649.949 244.973H652.488C652.645 245.871 653.348 246.32 654.5 246.32C655.691 246.32 656.492 245.832 656.492 245.051C656.492 244.445 656.004 244.055 654.949 243.82L653.25 243.449C651.277 243.059 650.262 242.023 650.262 240.5C650.262 238.547 651.941 237.258 654.539 237.258C657.078 237.258 658.641 238.488 658.816 240.422H656.453ZM662.469 248.156C661.629 248.156 660.945 247.473 660.945 246.633C660.945 245.812 661.629 245.129 662.469 245.129C663.27 245.129 663.973 245.812 663.973 246.633C663.973 247.473 663.27 248.156 662.469 248.156ZM666.375 248V233.859H668.875V241.652H669.051L672.859 237.395H675.77L671.668 241.965L676.023 248H673.055L669.793 243.449L668.875 244.426V248H666.375ZM677.254 248V237.395H679.676V239.152H679.793C680.164 237.941 681.199 237.238 682.41 237.238C682.684 237.238 683.074 237.258 683.309 237.297V239.602C683.094 239.523 682.566 239.445 682.156 239.445C680.77 239.445 679.754 240.402 679.754 241.75V248H677.254Z" fill="white"/>
<rect x="172" y="319" width="524" height="1" fill="#E1E1E1"/>
<path d="M182.84 359.625C182.547 357.926 181.18 356.949 179.461 356.949C177.137 356.949 175.516 358.727 175.516 361.93C175.516 365.172 177.156 366.91 179.461 366.91C181.141 366.91 182.508 365.973 182.84 364.312H185.398C185.008 367.027 182.781 369.195 179.422 369.195C175.691 369.195 172.957 366.48 172.957 361.93C172.957 357.359 175.73 354.664 179.422 354.664C182.547 354.664 184.969 356.48 185.398 359.625H182.84ZM192.098 369.215C189.012 369.215 187.02 367.027 187.02 363.746C187.02 360.445 189.012 358.258 192.098 358.258C195.203 358.258 197.176 360.445 197.176 363.746C197.176 367.027 195.203 369.215 192.098 369.215ZM192.117 367.223C193.816 367.223 194.656 365.68 194.656 363.727C194.656 361.793 193.816 360.23 192.117 360.23C190.379 360.23 189.539 361.793 189.539 363.727C189.539 365.68 190.379 367.223 192.117 367.223ZM199.109 372.984V358.395H201.551V360.133H201.707C202.098 359.371 202.879 358.258 204.754 358.258C207.195 358.258 209.129 360.172 209.129 363.707C209.129 367.203 207.254 369.195 204.754 369.195C202.918 369.195 202.098 368.102 201.707 367.32H201.609V372.984H199.109ZM201.551 363.688C201.551 365.758 202.449 367.145 204.07 367.145C205.711 367.145 206.59 365.699 206.59 363.688C206.59 361.715 205.73 360.289 204.07 360.289C202.449 360.289 201.551 361.637 201.551 363.688ZM212.215 372.984C211.727 372.984 211.238 372.965 210.926 372.926V370.934C211.238 370.953 211.648 370.973 211.98 370.973C212.586 370.973 213.094 370.914 213.523 369.781L213.738 369.215L209.871 358.395H212.508L214.969 366.402H215.086L217.547 358.395H220.184L215.926 370.289C215.32 371.988 214.207 372.984 212.215 372.984ZM221.746 369V358.395H224.168V360.152H224.285C224.656 358.941 225.691 358.238 226.902 358.238C227.176 358.238 227.566 358.258 227.801 358.297V360.602C227.586 360.523 227.059 360.445 226.648 360.445C225.262 360.445 224.246 361.402 224.246 362.75V369H221.746ZM229.285 369V358.395H231.785V369H229.285ZM230.555 356.891C229.773 356.891 229.109 356.285 229.109 355.523C229.109 354.781 229.773 354.176 230.555 354.176C231.355 354.176 232 354.781 232 355.523C232 356.285 231.355 356.891 230.555 356.891ZM238.797 373.199C235.984 373.199 234.207 371.949 234.031 369.957H236.512C236.688 370.875 237.566 371.324 238.836 371.324C240.32 371.324 241.297 370.68 241.297 369.117V367.086H241.18C240.789 367.867 239.949 368.844 238.113 368.844C235.672 368.844 233.738 367.066 233.738 363.609C233.738 360.113 235.672 358.258 238.133 358.258C240.008 358.258 240.789 359.371 241.18 360.133H241.297V358.395H243.758V369.176C243.758 371.891 241.668 373.199 238.797 373.199ZM238.797 366.891C240.398 366.891 241.316 365.68 241.316 363.648C241.316 361.637 240.418 360.289 238.797 360.289C237.137 360.289 236.277 361.715 236.277 363.648C236.277 365.602 237.156 366.891 238.797 366.891ZM248.641 362.789V369H246.141V354.859H248.582V360.191H248.719C249.207 359 250.223 358.258 251.863 358.258C254.07 358.258 255.516 359.684 255.516 362.242V369H253.035V362.633C253.035 361.188 252.254 360.367 250.945 360.367C249.598 360.367 248.641 361.246 248.641 362.789ZM263.172 358.395V360.309H261.082V365.816C261.082 366.832 261.59 367.047 262.215 367.047C262.508 367.047 262.996 367.027 263.309 367.008V369.039C263.016 369.098 262.527 369.137 261.902 369.137C260.027 369.137 258.582 368.219 258.602 366.227V360.309H257.078V358.395H258.602V355.855H261.082V358.395H263.172ZM274.355 365.3C273.368 365.3 272.588 365.02 272.015 364.46C271.441 363.9 271.155 363.06 271.155 361.94C271.155 360.793 271.461 359.94 272.075 359.38C272.701 358.807 273.508 358.52 274.495 358.52C274.881 358.52 275.241 358.56 275.575 358.64C275.908 358.72 276.228 358.84 276.535 359L275.995 360.4C275.728 360.28 275.475 360.193 275.235 360.14C274.995 360.073 274.748 360.04 274.495 360.04C274.055 360.04 273.708 360.2 273.455 360.52C273.215 360.84 273.095 361.313 273.095 361.94C273.095 362.567 273.215 363.033 273.455 363.34C273.708 363.647 274.048 363.8 274.475 363.8C274.781 363.8 275.095 363.753 275.415 363.66C275.735 363.553 276.055 363.42 276.375 363.26V364.8C276.068 364.96 275.755 365.087 275.435 365.18C275.115 365.26 274.755 365.3 274.355 365.3ZM273.895 370.52C272.695 370.52 271.568 370.293 270.515 369.84C269.475 369.4 268.555 368.787 267.755 368C266.968 367.2 266.348 366.28 265.895 365.24C265.455 364.187 265.235 363.06 265.235 361.86C265.235 360.66 265.455 359.54 265.895 358.5C266.348 357.447 266.968 356.527 267.755 355.74C268.555 354.94 269.475 354.32 270.515 353.88C271.568 353.427 272.695 353.2 273.895 353.2C275.095 353.2 276.215 353.427 277.255 353.88C278.308 354.32 279.228 354.94 280.015 355.74C280.815 356.527 281.435 357.447 281.875 358.5C282.328 359.54 282.555 360.66 282.555 361.86C282.555 363.06 282.328 364.187 281.875 365.24C281.435 366.28 280.815 367.2 280.015 368C279.228 368.787 278.308 369.4 277.255 369.84C276.215 370.293 275.095 370.52 273.895 370.52ZM273.895 368.74C274.855 368.74 275.748 368.567 276.575 368.22C277.401 367.86 278.128 367.367 278.755 366.74C279.395 366.1 279.888 365.367 280.235 364.54C280.595 363.7 280.775 362.807 280.775 361.86C280.775 360.9 280.595 360.007 280.235 359.18C279.888 358.353 279.395 357.627 278.755 357C278.128 356.36 277.395 355.867 276.555 355.52C275.728 355.16 274.841 354.98 273.895 354.98C272.935 354.98 272.041 355.16 271.215 355.52C270.388 355.867 269.655 356.36 269.015 357C268.388 357.627 267.895 358.36 267.535 359.2C267.188 360.027 267.015 360.913 267.015 361.86C267.015 362.82 267.188 363.713 267.535 364.54C267.895 365.367 268.388 366.1 269.015 366.74C269.655 367.367 270.388 367.86 271.215 368.22C272.055 368.567 272.948 368.74 273.895 368.74ZM286.668 354.723V358.961H288.25V354.723H290.027V366.559H284.891V354.723H286.668ZM286.668 364.801H288.25V360.66H286.668V364.801ZM292.898 354.723V358.961H294.422V354.723H296.16V366.559H291.102V354.723H292.898ZM292.898 364.801H294.422V360.66H292.898V364.801ZM299.695 353.082V370.738H297.605V353.082H299.695ZM316.473 353.082V370.758H314.324V353.082H316.473ZM311.043 354.625V361.246H304.969V364.801C307.752 364.781 310.154 364.645 312.898 364.176L313.094 365.953C310.086 366.48 307.449 366.578 304.285 366.578H302.742V359.527H308.836V356.383H302.723V354.625H311.043ZM333.523 353.082V359.723H335.496V361.559H333.523V370.738H331.375V353.082H333.523ZM321.062 354.703V358.941H322.547V354.703H324.344V366.578H319.266V354.703H321.062ZM321.062 364.801H322.547V360.66H321.062V364.801ZM326.902 354.703V358.941H328.387V354.703H330.184V366.578H325.145V354.703H326.902ZM326.902 364.801H328.387V360.66H326.902V364.801ZM351.043 353.082V370.758H348.895V353.082H351.043ZM345.613 354.625V361.246H339.539V364.801C342.322 364.781 344.725 364.645 347.469 364.176L347.664 365.953C344.656 366.48 342.02 366.578 338.855 366.578H337.312V359.527H343.406V356.383H337.293V354.625H345.613ZM356.844 354.332V357.125H358.934V354.332H361.004V363.082H362.293V354.332H364.402V357.125H366.512V354.332H368.621V363.277H362.723V366.832H369.715V368.609H353.621V366.832H360.574V363.277H354.715V354.332H356.844ZM356.844 361.52H358.934V358.844H356.844V361.52ZM364.402 361.52H366.512V358.844H364.402V361.52Z" fill="white"/>
<path d="M901.273 196.082V213.758H899.086V196.082H901.273ZM891.762 197.371C894.418 197.371 896.352 199.793 896.371 203.602C896.352 207.449 894.418 209.852 891.762 209.852C889.086 209.852 887.152 207.449 887.152 203.602C887.152 199.793 889.086 197.371 891.762 197.371ZM891.762 199.324C890.258 199.324 889.242 200.906 889.242 203.602C889.242 206.316 890.258 207.898 891.762 207.898C893.246 207.898 894.262 206.316 894.262 203.602C894.262 200.906 893.246 199.324 891.762 199.324ZM919.965 204.578V206.316H903.871V204.578H907.621V202.332C906.293 201.775 905.531 200.887 905.531 199.734C905.531 197.625 908.012 196.375 911.898 196.375C915.785 196.375 918.246 197.625 918.266 199.734C918.256 200.896 917.494 201.785 916.156 202.332V204.578H919.965ZM911.898 207.391C915.707 207.371 917.992 208.504 918.012 210.535C917.992 212.586 915.707 213.699 911.898 213.699C908.051 213.699 905.746 212.586 905.746 210.535C905.746 208.504 908.051 207.371 911.898 207.391ZM911.898 209.031C909.32 209.031 907.934 209.539 907.953 210.535C907.934 211.531 909.32 212.059 911.898 212.059C914.418 212.059 915.824 211.531 915.844 210.535C915.824 209.539 914.418 209.031 911.898 209.031ZM911.898 198.055C909.281 198.055 907.777 198.641 907.797 199.734C907.777 200.809 909.281 201.375 911.898 201.375C914.496 201.375 916.02 200.809 916.02 199.734C916.02 198.641 914.496 198.055 911.898 198.055ZM909.809 204.578H913.988V202.898C913.354 202.986 912.65 203.035 911.898 203.035C911.146 203.035 910.443 202.986 909.809 202.898V204.578ZM937.484 198.543V200.301H935.082V202.332H937.484V204.148H935.082V206.512H932.914V196.082H935.082V198.543H937.484ZM935.082 207.273V213.738H932.914V209.031H923.324V207.273H935.082ZM926.117 197.098C928.832 197.078 930.863 198.855 930.883 201.336C930.863 203.855 928.832 205.613 926.117 205.613C923.383 205.613 921.332 203.855 921.352 201.336C921.332 198.855 923.383 197.078 926.117 197.098ZM926.117 198.934C924.594 198.953 923.461 199.871 923.48 201.336C923.461 202.84 924.594 203.777 926.117 203.758C927.621 203.777 928.754 202.84 928.754 201.336C928.754 199.871 927.621 198.953 926.117 198.934ZM948.305 197.391V198.445C948.285 199.656 948.285 201.395 947.875 203.641L945.727 203.445C946.068 201.619 946.137 200.271 946.176 199.188H939.301V197.391H948.305ZM943.852 201.414V204.93C945.678 204.861 947.553 204.725 949.262 204.48L949.379 206.043C945.707 206.707 941.547 206.766 938.441 206.785L938.246 205.047C939.291 205.037 940.463 205.027 941.703 205.008V201.414H943.852ZM952.523 196.082V201.59H954.809V203.406H952.523V209.305H950.297V196.082H952.523ZM953.09 211.629V213.387H940.883V208.133H943.07V211.629H953.09Z" fill="white"/>
<path d="M901.742 232.082V249.738H899.652V240.676H897.758V248.918H895.727V232.551H897.758V238.918H899.652V232.082H901.742ZM894.223 234.309C894.223 239.074 892.719 243.176 887.699 246.047L886.449 244.543C890.209 242.365 891.801 239.572 892.113 236.047H887.27V234.309H894.223ZM918.578 232.102V244.855H916.391V232.102H918.578ZM919.066 247.629V249.387H906.898V243.566H909.086V247.629H919.066ZM908.949 233.254C911.625 233.254 913.695 235.109 913.695 237.668C913.695 240.285 911.625 242.102 908.949 242.102C906.254 242.102 904.184 240.285 904.184 237.668C904.184 235.109 906.254 233.254 908.949 233.254ZM908.949 235.148C907.445 235.148 906.293 236.145 906.312 237.668C906.293 239.23 907.445 240.207 908.949 240.207C910.414 240.207 911.566 239.23 911.566 237.668C911.566 236.145 910.414 235.148 908.949 235.148ZM935.941 232.082V242.57H933.773V238.254H930.766V236.477H933.773V232.082H935.941ZM929.965 243.02C933.715 243.02 936 244.25 936 246.379C936 248.508 933.715 249.738 929.965 249.738C926.234 249.738 923.949 248.508 923.969 246.379C923.949 244.25 926.234 243.02 929.965 243.02ZM929.965 244.68C927.504 244.68 926.117 245.266 926.117 246.379C926.117 247.473 927.504 248.059 929.965 248.059C932.426 248.059 933.832 247.473 933.832 246.379C933.832 245.266 932.426 244.68 929.965 244.68ZM927.641 235.109C927.641 237.258 929.066 239.426 931.801 240.344L930.707 242.062C928.744 241.398 927.348 240.051 926.586 238.391C925.805 240.275 924.33 241.779 922.23 242.531L921.098 240.812C923.93 239.836 925.434 237.453 925.434 235.129V234.992H921.762V233.234H931.293V234.992H927.641V235.109ZM954.574 245.832V247.609H938.441V245.832H945.395V242.395H940.219V233.254H942.387V236.145H950.57V233.254H952.738V242.395H947.543V245.832H954.574ZM942.387 240.637H950.57V237.883H942.387V240.637ZM970.531 232.082V249.758H968.363V240.734H964.945V238.977H968.363V232.082H970.531ZM962.172 237.688C962.152 240.363 963.754 243.215 966.547 244.445L965.375 246.105C963.354 245.246 961.889 243.479 961.117 241.359C960.336 243.605 958.881 245.49 956.859 246.398L955.688 244.719C958.441 243.469 960.004 240.461 960.004 237.688V236.77H956.215V235.031H960.023V232.453H962.191V235.031H965.883V236.77H962.172V237.688ZM987.719 232.082V249.758H985.57V232.082H987.719ZM982.289 233.625V240.246H976.215V243.801C978.998 243.781 981.4 243.645 984.145 243.176L984.34 244.953C981.332 245.48 978.695 245.578 975.531 245.578H973.988V238.527H980.082V235.383H973.969V233.625H982.289ZM998.48 242.98C1002.13 242.98 1004.38 244.211 1004.4 246.34C1004.38 248.488 1002.13 249.738 998.48 249.738C994.789 249.738 992.504 248.488 992.504 246.34C992.504 244.211 994.789 242.98 998.48 242.98ZM998.48 244.68C996.059 244.68 994.672 245.246 994.672 246.34C994.672 247.434 996.059 248.02 998.48 248.02C1000.9 248.02 1002.25 247.434 1002.25 246.34C1002.25 245.246 1000.9 244.68 998.48 244.68ZM1004.22 232.082V236.301H1006.68V238.117H1004.22V242.551H1002.05V232.082H1004.22ZM993.051 233.195V235.578H997.172V233.195H999.32V241.438H990.902V233.195H993.051ZM993.051 239.719H997.172V237.277H993.051V239.719ZM1018.05 233.957V235.676H1014.28C1014.29 237.639 1015.83 239.562 1018.66 240.305L1017.64 242.004C1015.58 241.438 1014.08 240.227 1013.25 238.664C1012.45 240.373 1010.94 241.711 1008.83 242.336L1007.82 240.676C1010.6 239.836 1012.1 237.775 1012.11 235.676H1008.34V233.957H1012.11V232.023H1014.3V233.957H1018.05ZM1022.29 232.102V242.473H1020.1V232.102H1022.29ZM1022.29 243.273V249.523H1010.57V243.273H1022.29ZM1012.72 245.012V247.766H1020.16V245.012H1012.72Z" fill="white"/>
<path d="M1551.35 206.65C1550.76 206.65 1550.18 206.826 1549.68 207.156C1549.19 207.485 1548.81 207.954 1548.58 208.502C1548.35 209.05 1548.29 209.653 1548.41 210.235C1548.52 210.817 1548.81 211.352 1549.23 211.771C1549.65 212.191 1550.18 212.477 1550.76 212.592C1551.35 212.708 1551.95 212.649 1552.5 212.422C1553.05 212.195 1553.51 211.81 1553.84 211.317C1554.17 210.823 1554.35 210.243 1554.35 209.65C1554.35 208.854 1554.03 208.091 1553.47 207.529C1552.91 206.966 1552.15 206.65 1551.35 206.65ZM1562.85 212.7C1562.8 210.626 1562.41 208.574 1561.7 206.625C1561.06 204.958 1560.07 203.448 1558.8 202.2C1557.56 200.919 1556.05 199.935 1554.38 199.325C1552.43 198.59 1550.38 198.193 1548.3 198.15C1545.65 198 1544.8 198 1538 198C1531.2 198 1530.35 198 1527.7 198.15C1525.62 198.193 1523.57 198.59 1521.62 199.325C1519.95 199.942 1518.44 200.924 1517.2 202.2C1515.92 203.438 1514.94 204.951 1514.32 206.625C1513.59 208.568 1513.19 210.623 1513.15 212.7C1513 215.35 1513 216.2 1513 223C1513 229.8 1513 230.65 1513.15 233.3C1513.19 235.377 1513.59 237.432 1514.32 239.375C1514.94 241.049 1515.92 242.562 1517.2 243.8C1518.44 245.076 1519.95 246.058 1521.62 246.675C1523.57 247.41 1525.62 247.807 1527.7 247.85C1530.35 248 1531.2 248 1538 248C1544.8 248 1545.65 248 1548.3 247.85C1550.38 247.807 1552.43 247.41 1554.38 246.675C1556.05 246.065 1557.56 245.081 1558.8 243.8C1560.08 242.556 1561.07 241.045 1561.7 239.375C1562.41 237.426 1562.8 235.374 1562.85 233.3C1562.85 230.65 1563 229.8 1563 223C1563 216.2 1563 215.35 1562.85 212.7ZM1558.35 233C1558.33 234.587 1558.04 236.159 1557.5 237.65C1557.1 238.738 1556.46 239.721 1555.62 240.525C1554.81 241.351 1553.83 241.991 1552.75 242.4C1551.26 242.944 1549.69 243.232 1548.1 243.25C1545.6 243.375 1544.67 243.4 1538.1 243.4C1531.52 243.4 1530.6 243.4 1528.1 243.25C1526.45 243.281 1524.81 243.027 1523.25 242.5C1522.21 242.07 1521.28 241.432 1520.5 240.625C1519.67 239.822 1519.04 238.838 1518.65 237.75C1518.04 236.238 1517.7 234.63 1517.65 233C1517.65 230.5 1517.5 229.575 1517.5 223C1517.5 216.425 1517.5 215.5 1517.65 213C1517.66 211.378 1517.96 209.77 1518.53 208.25C1518.97 207.195 1519.64 206.254 1520.5 205.5C1521.26 204.64 1522.2 203.958 1523.25 203.5C1524.77 202.95 1526.38 202.663 1528 202.65C1530.5 202.65 1531.42 202.5 1538 202.5C1544.58 202.5 1545.5 202.5 1548 202.65C1549.59 202.668 1551.16 202.956 1552.65 203.5C1553.79 203.922 1554.81 204.607 1555.62 205.5C1556.44 206.268 1557.08 207.207 1557.5 208.25C1558.06 209.772 1558.34 211.379 1558.35 213C1558.47 215.5 1558.5 216.425 1558.5 223C1558.5 229.575 1558.47 230.5 1558.35 233ZM1538 210.175C1535.46 210.18 1532.99 210.936 1530.88 212.349C1528.78 213.761 1527.14 215.765 1526.17 218.109C1525.2 220.453 1524.95 223.031 1525.45 225.517C1525.95 228.003 1527.17 230.286 1528.97 232.077C1530.76 233.869 1533.05 235.088 1535.53 235.58C1538.02 236.073 1540.6 235.818 1542.94 234.846C1545.28 233.875 1547.28 232.231 1548.69 230.123C1550.1 228.014 1550.85 225.535 1550.85 223C1550.85 221.313 1550.52 219.642 1549.88 218.082C1549.23 216.523 1548.29 215.107 1547.09 213.915C1545.9 212.723 1544.48 211.779 1542.92 211.137C1541.36 210.495 1539.69 210.168 1538 210.175ZM1538 231.325C1536.35 231.325 1534.74 230.837 1533.37 229.922C1532.01 229.007 1530.94 227.707 1530.31 226.186C1529.68 224.665 1529.51 222.991 1529.83 221.376C1530.16 219.761 1530.95 218.278 1532.11 217.113C1533.28 215.949 1534.76 215.156 1536.38 214.835C1537.99 214.514 1539.66 214.679 1541.19 215.309C1542.71 215.939 1544.01 217.006 1544.92 218.375C1545.84 219.744 1546.33 221.353 1546.33 223C1546.33 224.093 1546.11 225.176 1545.69 226.186C1545.27 227.196 1544.66 228.114 1543.89 228.887C1543.11 229.66 1542.2 230.273 1541.19 230.691C1540.18 231.11 1539.09 231.325 1538 231.325Z" fill="white"/>
<path d="M1650.25 198H1605.75C1605.02 198 1604.32 198.29 1603.81 198.805C1603.29 199.321 1603 200.021 1603 200.75V245.25C1603 245.611 1603.07 245.969 1603.21 246.302C1603.35 246.636 1603.55 246.939 1603.81 247.195C1604.06 247.45 1604.36 247.652 1604.7 247.791C1605.03 247.929 1605.39 248 1605.75 248H1629.7V228.625H1623.2V221.125H1629.7V215.5C1629.57 214.179 1629.72 212.845 1630.16 211.591C1630.59 210.337 1631.3 209.194 1632.22 208.241C1633.15 207.288 1634.27 206.549 1635.51 206.076C1636.75 205.602 1638.08 205.406 1639.4 205.5C1641.35 205.488 1643.29 205.588 1645.22 205.8V212.55H1641.25C1638.1 212.55 1637.5 214.05 1637.5 216.225V221.05H1645L1644.03 228.55H1637.5V248H1650.25C1650.61 248 1650.97 247.929 1651.3 247.791C1651.64 247.652 1651.94 247.45 1652.19 247.195C1652.45 246.939 1652.65 246.636 1652.79 246.302C1652.93 245.969 1653 245.611 1653 245.25V200.75C1653 200.389 1652.93 200.031 1652.79 199.698C1652.65 199.364 1652.45 199.061 1652.19 198.805C1651.94 198.55 1651.64 198.348 1651.3 198.209C1650.97 198.071 1650.61 198 1650.25 198Z" fill="white"/>
<path d="M902.699 276.91V278.648H895.883V281.891H893.734V278.648H886.566V276.91H902.699ZM900.629 268.883V275.27H888.617V268.883H900.629ZM890.727 270.582V273.57H898.48V270.582H890.727ZM900.922 283.629V285.387H888.52V280.27H890.688V283.629H900.922ZM909.594 269.312C912.387 269.293 914.438 271.07 914.457 273.57C914.438 276.09 912.387 277.848 909.594 277.848C906.82 277.848 904.75 276.09 904.75 273.57C904.75 271.07 906.82 269.293 909.594 269.312ZM909.594 271.188C908.051 271.188 906.898 272.105 906.898 273.57C906.898 275.055 908.051 275.953 909.594 275.953C911.156 275.953 912.328 275.055 912.328 273.57C912.328 272.105 911.156 271.188 909.594 271.188ZM918.578 268.082V285.758H916.41V268.082H918.578ZM903.949 280.289C907.133 280.289 911.547 280.25 915.355 279.703L915.531 281.285C911.566 282.047 907.328 282.066 904.223 282.066L903.949 280.289ZM934.984 268.082V275.113H937.699V276.91H934.984V285.738H932.836V268.082H934.984ZM931.469 270.797V272.535H921.059V270.797H925.238V268.336H927.406V270.797H931.469ZM926.332 273.688C928.871 273.688 930.766 275.406 930.766 277.848C930.766 280.289 928.871 281.988 926.332 281.988C923.754 281.988 921.859 280.289 921.879 277.848C921.859 275.406 923.754 273.688 926.332 273.688ZM926.332 275.465C924.945 275.465 923.949 276.402 923.949 277.848C923.949 279.293 924.945 280.211 926.332 280.191C927.68 280.211 928.676 279.293 928.695 277.848C928.676 276.402 927.68 275.465 926.332 275.465ZM953.188 268.082V285.738H951V268.082H953.188ZM947.914 269.957C947.914 275.211 945.883 279.684 939.691 282.613L938.559 280.875C943.178 278.678 945.326 275.689 945.707 271.676H939.457V269.957H947.914Z" fill="white"/>
<path d="M1745.52 216.629C1745.65 213.051 1744.86 209.499 1743.25 206.304C1742.15 204.993 1740.63 204.108 1738.95 203.804C1731.99 203.173 1725.01 202.914 1718.02 203.029C1711.06 202.909 1704.1 203.159 1697.17 203.779C1695.8 204.029 1694.53 204.671 1693.52 205.629C1691.27 207.704 1691.02 211.254 1690.77 214.254C1690.41 219.648 1690.41 225.06 1690.77 230.454C1690.84 232.143 1691.1 233.819 1691.52 235.454C1691.82 236.717 1692.43 237.885 1693.3 238.854C1694.32 239.863 1695.61 240.542 1697.02 240.804C1702.41 241.47 1707.84 241.745 1713.27 241.629C1722.02 241.754 1729.7 241.629 1738.77 240.929C1740.22 240.683 1741.55 240.003 1742.6 238.979C1743.3 238.279 1743.82 237.422 1744.12 236.479C1745.02 233.736 1745.46 230.864 1745.42 227.979C1745.52 226.579 1745.52 218.129 1745.52 216.629ZM1712.37 229.479V214.004L1727.17 221.779C1723.02 224.079 1717.55 226.679 1712.37 229.479Z" fill="white"/>
</svg>
