<svg width="530" height="116" viewBox="0 0 530 116" fill="none" xmlns="http://www.w3.org/2000/svg">
<rect x="0.75" y="0.75" width="528.5" height="114.5" rx="29.25" fill="white"/>
<rect x="0.75" y="0.75" width="528.5" height="114.5" rx="29.25" stroke="#1F6EFF" stroke-width="1.5"/>
<path d="M80.6016 55.2969V59.3008H63.2188V62.5234H75.6699V72.875H50.5723V75.9023H76.8906V79.9551H45.25V69.1641H70.3477V66.4297H45.2012V62.5234H57.8477V59.3008H40.5625V55.2969H80.6016ZM63.2188 36.1074V39.8184H76.7441V43.8711H63.8047C64.8545 46.9961 69.9814 49.3398 78.7949 49.7793L77.1836 53.832C69.2734 53.3438 63.3164 51.1953 60.5332 47.6309C57.75 51.1953 51.8174 53.3438 43.834 53.832L42.3203 49.7793C51.0361 49.3398 56.1631 46.9961 57.3105 43.8711H44.4199V39.8184H57.8477V36.1074H63.2188ZM120.445 36.2051V59.8867H114.977V36.2051H120.445ZM96.6172 61.9375V66.4785H115.025V61.9375H120.445V79.8086H91.2461V61.9375H96.6172ZM96.6172 75.4141H115.025V70.7266H96.6172V75.4141ZM96.373 38.1582C103.16 38.1094 108.238 42.3574 108.238 48.5098C108.238 54.5156 103.16 58.7637 96.373 58.7637C89.5371 58.7637 84.459 54.5156 84.459 48.5098C84.459 42.3574 89.5371 38.1094 96.373 38.1582ZM96.373 42.6992C92.5156 42.6992 89.7324 44.9453 89.7812 48.5098C89.7324 52.0254 92.5156 54.2715 96.373 54.3203C100.182 54.2715 102.916 52.0254 102.916 48.5098C102.916 44.9453 100.182 42.6992 96.373 42.6992ZM175.621 36.2051V80.3457H170.152V36.2051H175.621ZM162.438 40.8926C162.438 54.0273 157.359 65.209 141.881 72.5332L139.049 68.1875C150.597 62.6943 155.968 55.2236 156.92 45.1895H141.295V40.8926H162.438ZM222.252 60.082V64.4766H181.92V60.082H199.4V56.4199H187.047V44.7012H211.852V41.4297H186.9V37.1816H217.271V48.6562H192.418V52.1719H218.15V56.4199H204.771V60.082H222.252ZM217.516 67.2598V80.0527H212.047V71.5566H186.412V67.2598H217.516ZM261.705 39.4766V42.1133C261.656 45.1406 261.656 49.4863 260.631 55.1016L255.26 54.6133C256.114 50.0479 256.285 46.6787 256.383 43.9688H239.195V39.4766H261.705ZM250.572 49.5352V58.3242C255.138 58.1533 259.825 57.8115 264.098 57.2012L264.391 61.1074C255.211 62.7676 244.811 62.9141 237.047 62.9629L236.559 58.6172C239.171 58.5928 242.101 58.5684 245.201 58.5195V49.5352H250.572ZM272.252 36.2051V49.9746H277.965V54.5156H272.252V69.2617H266.686V36.2051H272.252ZM273.668 75.0723V79.4668H243.15V66.332H248.619V75.0723H273.668ZM317.027 36.2051V80.3945H311.656V36.2051H317.027ZM303.453 40.0625V56.6152H288.268V65.502C295.226 65.4531 301.231 65.1113 308.092 63.9395L308.58 68.3828C301.061 69.7012 294.469 69.9453 286.559 69.9453H282.701V52.3184H297.936V44.457H282.652V40.0625H303.453Z" fill="black"/>
<path d="M474.889 83C474.889 75.3294 468.671 69.1111 461 69.1111C453.329 69.1111 447.111 75.3294 447.111 83M474.889 83H477.12C480.225 83 481.778 83 482.965 82.3951C484.01 81.8624 484.862 81.0103 485.395 79.965C486 78.7778 486 77.225 486 74.1197V41.8803C486 38.775 486 37.22 485.395 36.0328C484.862 34.9874 484.01 34.1381 482.965 33.6055C481.777 33 480.223 33 477.112 33H444.889C441.778 33 440.221 33 439.033 33.6055C437.987 34.1381 437.138 34.9874 436.606 36.0328C436 37.2212 436 38.778 436 41.8894V74.1117C436 77.2231 436 78.7766 436.606 79.965C437.138 81.0103 437.987 81.8624 439.033 82.3951C440.22 83 441.775 83 444.88 83H447.111M474.889 83H447.111M461 60.7778C456.398 60.7778 452.667 57.0468 452.667 52.4444C452.667 47.8421 456.398 44.1111 461 44.1111C465.602 44.1111 469.333 47.8421 469.333 52.4444C469.333 57.0468 465.602 60.7778 461 60.7778Z" stroke="#1F6EFF" stroke-width="5" stroke-linecap="round" stroke-linejoin="round"/>
</svg>
