<svg width="75" height="26" viewBox="0 0 75 26" fill="none" xmlns="http://www.w3.org/2000/svg">
<path d="M23.8145 21.3926V22.9746H0.142578V21.3926H10.9824V16.1777H3.18945V8.44336H18.9219V3.99023H3.10156V2.4375H20.7383V9.99609H5.00586V14.625H21.3535V16.1777H12.8281V21.3926H23.8145ZM46.373 3.31641V5.74805C46.3438 8.88281 46.3438 12.6328 45.377 18.3457L43.4727 18.1113C44.5566 12.75 44.5566 8.82422 44.5566 5.74805V4.86914H28.6777V3.31641H46.373ZM49.625 20.7773V22.3594H26.0703V20.7773H49.625ZM73.2383 0.445312V19.459H71.3926V0.445312H73.2383ZM74.0879 24.1172V25.6699H56.7441V17.4961H58.5898V24.1172H74.0879ZM59.3516 2.32031C63.1895 2.32031 66.0312 4.89844 66.0312 8.58984C66.0312 12.3105 63.1895 14.918 59.3516 14.8887C55.5137 14.918 52.6426 12.3105 52.6719 8.58984C52.6426 4.89844 55.5137 2.32031 59.3516 2.32031ZM59.3516 3.93164C56.5391 3.93164 54.459 5.92383 54.459 8.58984C54.459 11.2852 56.5391 13.248 59.3516 13.248C62.1348 13.248 64.2441 11.2852 64.2441 8.58984C64.2441 5.92383 62.1348 3.93164 59.3516 3.93164Z" fill="black"/>
</svg>
