<svg width="238" height="40" viewBox="0 0 238 40" fill="none" xmlns="http://www.w3.org/2000/svg">
<path d="M46.25 0.0999993V40H38.05V0.0999993H46.25ZM0.0500001 39.8V1.4H7.4V32.65H13.05V1.4H20.4V32.65H26.25V1.4H33.3V39.8H0.0500001ZM8.35 19.25L12.05 17.85V15.1L8.35 16.5V19.25ZM21.4 18.75L25.1 17.35V14.6L21.4 16V18.75ZM92.3383 0.0999993V40H82.4383V0.0999993H92.3383ZM51.9883 39.7V16.25H66.5383V9.35H51.9883V1.45H76.4883V24.1H62.1383V31.85H77.3883V39.7H51.9883ZM124.248 1.4H131.298V39.8H98.048V1.4H105.398V32.65H111.048V1.4H118.398V32.65H124.248V1.4ZM106.348 19.25L110.048 17.85V15.1L106.348 16.5V19.25ZM119.398 18.75L123.098 17.35V14.6L119.398 16V18.75ZM134.448 40V0.0999993H142.798V14.65H146.998V23.55H142.798V40H134.448ZM189.848 0.0999993V40H179.948V0.0999993H189.848ZM149.498 39.7V16.25H164.048V9.35H149.498V1.45H173.998V24.1H159.648V31.85H174.898V39.7H149.498ZM227.258 0.799999H236.058V25.2H222.508V30.55H238.008V38.45H196.008V30.55H211.458V25.2H197.908V0.799999H206.708V18.1H213.058V0.799999H220.908V18.1H227.258V0.799999ZM207.908 11.5V8.75L211.858 7.35V10.1L207.908 11.5ZM222.008 11V8.25L225.958 6.85V9.6L222.008 11Z" fill="black"/>
</svg>
