<svg width="160" height="64" viewBox="0 0 160 64" fill="none" xmlns="http://www.w3.org/2000/svg">
<g clip-path="url(#clip0_179_74)">
<rect width="160" height="64" rx="15" fill="#1F6EFF"/>
<path d="M61.92 21.28H72.2V23.96H61.92V21.28ZM61.92 28.76H72.2V31.4H61.92V28.76ZM54.84 18.16C60.24 18.16 64.16 21.56 64.16 26.44C64.16 31.24 60.24 34.64 54.84 34.64C49.44 34.64 45.52 31.24 45.52 26.44C45.52 21.56 49.44 18.16 54.84 18.16ZM54.84 20.92C51.28 20.92 48.72 23.2 48.72 26.44C48.72 29.64 51.28 31.92 54.84 31.92C58.4 31.92 61 29.64 61 26.44C61 23.2 58.4 20.92 54.84 20.92ZM71.4 16.96H74.72V35.48H71.4V16.96ZM51.44 37.32H74.72V46.04H54.76V51.48H51.52V43.56H71.44V39.96H51.44V37.32ZM51.52 50H76.04V52.64H51.52V50ZM108.117 16.96H111.437V53.12H108.117V16.96ZM97.5169 20.84H100.797C100.797 31.32 96.0769 40.48 83.9969 46.4L82.2369 43.72C92.6769 38.68 97.5169 31 97.5169 21.4V20.84ZM83.8769 20.84H98.9569V23.56H83.8769V20.84ZM71.32 64.96H74.64V101.12H71.32V64.96ZM60.72 68.84H64C64 79.32 59.28 88.48 47.2 94.4L45.44 91.72C55.88 86.68 60.72 79 60.72 69.4V68.84ZM47.08 68.84H62.16V71.56H47.08V68.84Z" fill="white"/>
</g>
<defs>
<clipPath id="clip0_179_74">
<rect width="160" height="64" rx="15" fill="white"/>
</clipPath>
</defs>
</svg>
