<svg width="1106" height="739" viewBox="0 0 1106 739" fill="none" xmlns="http://www.w3.org/2000/svg">
<rect x="0.5" y="0.5" width="1105" height="738" rx="9.5" fill="white"/>
<rect x="0.5" y="0.5" width="1105" height="738" rx="9.5" stroke="#1F6EFF"/>
<path d="M371.146 460.096V467.918H340.473V482.508H330.805V467.918H298.549V460.096H371.146ZM361.83 423.973V452.713H307.777V423.973H361.83ZM317.27 431.619V445.066H352.162V431.619H317.27ZM363.148 490.33V498.24H307.338V475.213H317.094V490.33H363.148Z" fill="#1F6EFF"/>
<path d="M442.514 420.369V499.91H432.67V420.369H442.514ZM399.711 426.17C411.664 426.17 420.365 437.068 420.453 454.207C420.365 471.521 411.664 482.332 399.711 482.332C387.67 482.332 378.969 471.521 378.969 454.207C378.969 437.068 387.67 426.17 399.711 426.17ZM399.711 434.959C392.943 434.959 388.373 442.078 388.373 454.207C388.373 466.424 392.943 473.543 399.711 473.543C406.391 473.543 410.961 466.424 410.961 454.207C410.961 442.078 406.391 434.959 399.711 434.959ZM497.621 422.83C504.257 422.83 509.926 425.159 513.705 429.07H532.338V420.369H542.094V460.535H532.338V452.889H513.881C510.102 456.932 504.345 459.305 497.621 459.305C485.58 459.305 476.615 451.834 476.615 441.023C476.615 430.301 485.58 422.83 497.621 422.83ZM497.621 430.74C490.766 430.74 485.932 434.783 485.932 441.023C485.932 447.352 490.766 451.395 497.621 451.395C504.213 451.395 509.047 447.352 509.135 441.023C509.047 434.783 504.213 430.74 497.621 430.74ZM542.094 464.139V484.705H499.555V491.121H544.643V498.855H489.799V477.498H532.338V471.697H489.711V464.139H542.094ZM517.924 436.629C518.231 438.035 518.451 439.485 518.451 441.023C518.451 442.474 518.275 443.924 517.924 445.242H532.338V436.629H517.924ZM591.312 423.973V447.791H566.264V456.756C578.7 456.712 586.127 456.536 594.74 454.998L595.707 462.732C585.951 464.578 577.602 464.754 562.396 464.666H556.596V440.408H581.557V431.883H556.42V423.973H591.312ZM619.877 420.457V467.303H610.121V454.998H596.234V447.176H610.121V438.299H596.234V430.477H610.121V420.457H619.877ZM581.996 472.752C581.996 479.476 584.984 486.507 591.752 490.945C598.651 486.199 601.771 478.86 601.859 472.752V469.588H611.439V472.752C611.439 481.189 616.273 489.188 626.732 492.615L621.986 499.646C614.296 497.054 609.154 491.912 606.43 485.496C603.881 491.824 599.223 497.449 591.928 500.438C584.457 497.625 579.711 492.132 577.162 485.672C574.35 491.912 569.34 497.01 562.045 499.646L557.035 492.615C567.318 488.924 572.504 480.662 572.504 472.752V469.588H581.996V472.752ZM652.836 426.17C663.603 426.17 671.557 435.135 672.963 449.637H688.08V420.369H697.748V499.91H688.08V457.547H673.051C671.996 472.884 663.91 482.332 652.836 482.332C640.883 482.332 632.445 471.521 632.445 454.207C632.445 437.068 640.883 426.17 652.836 426.17ZM652.836 434.959C646.244 434.959 641.762 442.078 641.85 454.207C641.762 466.424 646.244 473.543 652.836 473.543C659.428 473.543 663.822 466.424 663.91 454.207C663.822 442.078 659.428 434.959 652.836 434.959ZM781.508 482.156V490.154H708.91V482.156H725.697V462.029C719.369 458.426 715.546 452.757 715.59 445.682C715.502 433.025 727.982 424.676 745.033 424.676C762.172 424.676 774.652 433.025 774.652 445.682C774.652 452.625 770.961 458.206 764.809 461.854V482.156H781.508ZM745.033 432.41C733.168 432.41 725.082 437.42 725.17 445.682C725.082 453.855 733.168 458.953 745.033 458.953C756.898 458.953 765.072 453.855 765.072 445.682C765.072 437.42 756.898 432.41 745.033 432.41ZM735.365 482.156H754.877V465.545C751.845 466.248 748.549 466.6 745.033 466.6C741.605 466.6 738.354 466.248 735.365 465.633V482.156ZM803.041 428.367L802.074 473.279H792.143L791.088 428.367H803.041ZM797.152 492.703C793.373 492.703 790.297 489.627 790.297 485.848C790.297 482.156 793.373 479.08 797.152 479.08C800.756 479.08 803.92 482.156 803.92 485.848C803.92 489.627 800.756 492.703 797.152 492.703Z" fill="black"/>
<path d="M524.875 241.25H508.002C497.501 241.25 492.246 241.25 488.236 243.294C484.708 245.091 481.841 247.958 480.044 251.486C478 255.496 478 260.751 478 271.252V323.752C478 334.253 478 339.501 480.044 343.511C481.841 347.039 484.708 349.911 488.236 351.708C492.243 353.75 497.491 353.75 507.971 353.75L598.029 353.75C608.509 353.75 613.75 353.75 617.757 351.708C621.285 349.911 624.161 347.039 625.958 343.511C628 339.504 628 334.264 628 323.784V271.221C628 260.741 628 255.493 625.958 251.486C624.161 247.958 621.285 245.091 617.757 243.294C613.746 241.25 608.503 241.25 598.002 241.25H524.875ZM524.875 241.25V214.251C524.875 198.097 537.063 185 552.097 185C559.822 185 566.789 188.457 571.743 194.011" stroke="#1F6EFF" stroke-width="20" stroke-linecap="round" stroke-linejoin="round"/>
</svg>
