<svg width="1106" height="739" viewBox="0 0 1106 739" fill="none" xmlns="http://www.w3.org/2000/svg">
<rect x="0.5" y="0.5" width="1105" height="738" rx="9.5" fill="white"/>
<rect x="0.5" y="0.5" width="1105" height="738" rx="9.5" stroke="#1F6EFF"/>
<path d="M321.146 460.096V467.918H290.473V482.508H280.805V467.918H248.549V460.096H321.146ZM311.83 423.973V452.713H257.777V423.973H311.83ZM267.27 431.619V445.066H302.162V431.619H267.27ZM313.148 490.33V498.24H257.338V475.213H267.094V490.33H313.148Z" fill="#1F6EFF"/>
<path d="M392.514 420.369V499.91H382.67V420.369H392.514ZM349.711 426.17C361.664 426.17 370.365 437.068 370.453 454.207C370.365 471.521 361.664 482.332 349.711 482.332C337.67 482.332 328.969 471.521 328.969 454.207C328.969 437.068 337.67 426.17 349.711 426.17ZM349.711 434.959C342.943 434.959 338.373 442.078 338.373 454.207C338.373 466.424 342.943 473.543 349.711 473.543C356.391 473.543 360.961 466.424 360.961 454.207C360.961 442.078 356.391 434.959 349.711 434.959ZM447.621 422.83C454.257 422.83 459.926 425.159 463.705 429.07H482.338V420.369H492.094V460.535H482.338V452.889H463.881C460.102 456.932 454.345 459.305 447.621 459.305C435.58 459.305 426.615 451.834 426.615 441.023C426.615 430.301 435.58 422.83 447.621 422.83ZM447.621 430.74C440.766 430.74 435.932 434.783 435.932 441.023C435.932 447.352 440.766 451.395 447.621 451.395C454.213 451.395 459.047 447.352 459.135 441.023C459.047 434.783 454.213 430.74 447.621 430.74ZM492.094 464.139V484.705H449.555V491.121H494.643V498.855H439.799V477.498H482.338V471.697H439.711V464.139H492.094ZM467.924 436.629C468.231 438.035 468.451 439.485 468.451 441.023C468.451 442.474 468.275 443.924 467.924 445.242H482.338V436.629H467.924ZM569.877 420.369V499.91H560.121V467.303H545.619V459.305H560.121V445.682H545.883V437.684H560.121V420.369H569.877ZM541.4 427.225V456.932H515.912V473.807C526.415 473.719 535.556 473.279 546.234 471.697L547.025 479.695C534.809 481.629 524.701 481.893 512.396 481.893H506.244V449.285H531.82V435.047H505.98V427.225H541.4ZM630.697 472.049C630.697 478.641 633.729 485.584 640.541 489.891C647.44 485.276 650.648 478.069 650.736 472.049V468.797H660.316V472.049C660.229 480.398 665.15 488.133 675.609 491.473L670.863 498.592C663.129 495.999 657.987 490.945 655.219 484.617C652.67 490.857 647.968 496.438 640.805 499.295C633.246 496.57 628.5 491.209 626.039 484.881C623.183 490.989 618.129 495.955 610.746 498.592L605.912 491.473C616.195 487.869 621.117 479.783 621.205 472.049V468.797H630.697V472.049ZM668.666 420.457V465.457H658.822V420.457H668.666ZM625.336 424.676C637.553 424.676 646.693 432.41 646.693 443.572C646.693 454.646 637.553 462.381 625.336 462.381C613.031 462.381 603.891 454.646 603.891 443.572C603.891 432.41 613.031 424.676 625.336 424.676ZM625.336 432.938C618.393 432.938 613.383 437.068 613.471 443.572C613.383 450.076 618.393 454.295 625.336 454.295C632.191 454.295 637.113 450.076 637.113 443.572C637.113 437.068 632.191 432.938 625.336 432.938ZM701.977 426.17C712.743 426.17 720.697 435.135 722.104 449.637H737.221V420.369H746.889V499.91H737.221V457.547H722.191C721.137 472.884 713.051 482.332 701.977 482.332C690.023 482.332 681.586 471.521 681.586 454.207C681.586 437.068 690.023 426.17 701.977 426.17ZM701.977 434.959C695.385 434.959 690.902 442.078 690.99 454.207C690.902 466.424 695.385 473.543 701.977 473.543C708.568 473.543 712.963 466.424 713.051 454.207C712.963 442.078 708.568 434.959 701.977 434.959ZM830.648 482.156V490.154H758.051V482.156H774.838V462.029C768.51 458.426 764.687 452.757 764.73 445.682C764.643 433.025 777.123 424.676 794.174 424.676C811.312 424.676 823.793 433.025 823.793 445.682C823.793 452.625 820.102 458.206 813.949 461.854V482.156H830.648ZM794.174 432.41C782.309 432.41 774.223 437.42 774.311 445.682C774.223 453.855 782.309 458.953 794.174 458.953C806.039 458.953 814.213 453.855 814.213 445.682C814.213 437.42 806.039 432.41 794.174 432.41ZM784.506 482.156H804.018V465.545C800.985 466.248 797.689 466.6 794.174 466.6C790.746 466.6 787.494 466.248 784.506 465.633V482.156ZM852.182 428.367L851.215 473.279H841.283L840.229 428.367H852.182ZM846.293 492.703C842.514 492.703 839.438 489.627 839.438 485.848C839.438 482.156 842.514 479.08 846.293 479.08C849.896 479.08 853.061 482.156 853.061 485.848C853.061 489.627 849.896 492.703 846.293 492.703Z" fill="black"/>
<path d="M524.875 241.25H508.002C497.501 241.25 492.246 241.25 488.236 243.294C484.708 245.091 481.841 247.958 480.044 251.486C478 255.496 478 260.751 478 271.252V323.752C478 334.253 478 339.501 480.044 343.511C481.841 347.039 484.708 349.911 488.236 351.708C492.243 353.75 497.491 353.75 507.971 353.75L598.029 353.75C608.509 353.75 613.75 353.75 617.757 351.708C621.285 349.911 624.161 347.039 625.958 343.511C628 339.504 628 334.264 628 323.784V271.221C628 260.741 628 255.493 625.958 251.486C624.161 247.958 621.285 245.091 617.757 243.294C613.746 241.25 608.503 241.25 598.002 241.25H524.875ZM524.875 241.25V214.251C524.875 198.097 537.063 185 552.097 185C559.822 185 566.789 188.457 571.743 194.011" stroke="#1F6EFF" stroke-width="20" stroke-linecap="round" stroke-linejoin="round"/>
</svg>
