<svg width="100" height="27" viewBox="0 0 100 27" fill="none" xmlns="http://www.w3.org/2000/svg">
<path d="M21.1777 0.445312V26.2852H19.332V0.445312H21.1777ZM0.289062 19.5176C2.58887 19.5029 5.19629 19.4883 7.90625 19.4004V16.3828C4.71289 16.1045 2.63281 14.332 2.66211 11.666C2.63281 8.76562 5.09375 6.89062 8.78516 6.89062C12.4766 6.89062 14.9668 8.76562 14.9668 11.666C14.9668 14.3027 12.916 16.0605 9.78125 16.3535V19.3125C12.3887 19.21 15.04 19.0195 17.5156 18.6973L17.6914 20.1328C11.8613 21.041 5.44531 21.1289 0.611328 21.1289L0.289062 19.5176ZM16.7539 3.72656V5.25H0.845703V3.72656H7.90625V0.416016H9.75195V3.72656H16.7539ZM8.78516 8.35547C6.17773 8.35547 4.36133 9.73242 4.39062 11.666C4.36133 13.5996 6.17773 14.918 8.78516 14.8887C11.4219 14.918 13.209 13.5996 13.209 11.666C13.209 9.73242 11.4219 8.35547 8.78516 8.35547ZM47.1641 0.445312V20.1328H45.3184V17.2324H39.8691V15.8262H45.3184V0.445312H47.1641ZM47.8379 24.1172V25.6699H29.7617V18.1699H31.6074V24.1172H47.8379ZM25.9238 12.5742C30.7285 12.5742 37.2324 12.5449 42.7988 11.8125L42.9453 13.1895C40.5576 13.5703 38.0381 13.8047 35.5625 13.9512V19.1367H33.7168V14.0391C31.0068 14.1416 28.4141 14.1562 26.1875 14.1562L25.9238 12.5742ZM34.4199 1.55859C38.2285 1.55859 40.7773 3.31641 40.8066 6.01172C40.7773 8.76562 38.2285 10.4941 34.4199 10.4648C30.6113 10.4941 28.0332 8.76562 28.0332 6.01172C28.0332 3.31641 30.6113 1.55859 34.4199 1.55859ZM34.4199 2.99414C31.666 2.96484 29.791 4.22461 29.8203 6.01172C29.791 7.85742 31.666 9.05859 34.4199 9.05859C37.1152 9.05859 39.0195 7.85742 39.0195 6.01172C39.0195 4.22461 37.1152 2.96484 34.4199 2.99414ZM71.8906 0.445312V11.1387H76.2559V12.7207H71.8906V26.2852H70.0449V0.445312H71.8906ZM65.2695 3.25781C65.2402 10.4355 61.666 17.0859 53.3164 21.2168L52.291 19.752C59.1758 16.3535 62.9258 11.0508 63.3945 4.81055H53.4336V3.25781H65.2695ZM99.166 0.445312V14.2734H97.3203V0.445312H99.166ZM84.4297 15.6504V19.0488H97.3496V15.6504H99.166V25.9043H82.6133V15.6504H84.4297ZM84.4297 24.3809H97.3496V20.5723H84.4297V24.3809ZM85.2793 1.73438C89.1758 1.73438 91.959 4.10742 91.959 7.65234C91.959 11.1387 89.1758 13.541 85.2793 13.5117C81.3828 13.541 78.5703 11.1387 78.5996 7.65234C78.5703 4.10742 81.3828 1.73438 85.2793 1.73438ZM85.2793 3.31641C82.4375 3.31641 80.3867 5.13281 80.3867 7.65234C80.3867 10.1426 82.4375 11.959 85.2793 11.959C88.1211 11.959 90.1719 10.1426 90.1719 7.65234C90.1719 5.13281 88.1211 3.31641 85.2793 3.31641Z" fill="black"/>
</svg>
