<svg width="530" height="277" viewBox="0 0 530 277" fill="none" xmlns="http://www.w3.org/2000/svg">
<rect x="0.75" y="0.75" width="528.5" height="275.5" rx="29.25" fill="white"/>
<rect x="0.75" y="0.75" width="528.5" height="275.5" rx="29.25" stroke="#1F6EFF" stroke-width="1.5"/>
<path d="M98.1348 56.2051V78.7148H92.7637V56.2051H98.1348ZM98.2324 80.7656V92.2402H74.3555V95.6582H99.5508V99.9551H69.0332V88.1875H92.8125V84.9648H68.9355V80.7656H98.2324ZM77.9199 60.6973C77.9199 66.3125 81.6309 71.5859 88.6133 73.6855L85.9766 77.8848C80.8496 76.3223 77.1875 73.0264 75.1855 68.8027C73.1836 73.3926 69.4238 76.9814 64.1504 78.666L61.416 74.418C68.5449 72.123 72.3047 66.459 72.3047 60.6973V57.2793H77.9199V60.6973ZM142.568 56.2051V100.346H137.344V78.0312H132.461V98.0996H127.383V57.0352H132.461V73.5879H137.344V56.2051H142.568ZM112.051 61.2832V84.5742C115.859 84.501 120.034 84.1836 124.648 83.2559L125.186 87.9922C119.229 89.0664 114.199 89.3594 109.512 89.3594H106.582V61.2832H112.051ZM298.379 90.5801V95.0234H258.047V90.5801H275.479V80.4238H280.898V90.5801H298.379ZM294.912 59.7695V64.2129H280.996C281.167 70.5605 287.71 76.3955 296.768 77.7383L294.619 82.0352C287.148 80.668 281.045 76.7373 278.213 71.2441C275.356 76.8105 269.302 80.8877 261.953 82.2793L259.805 77.9824C268.618 76.4932 275.112 70.5605 275.283 64.2129H261.416V59.7695H294.912ZM317.324 62.6992C317.275 67.4355 320.889 72.3672 327.627 74.3203L325.088 78.6172C320.083 77.1523 316.543 74.0518 314.59 70.1699C312.588 74.4668 308.877 77.9824 303.75 79.5938L301.064 75.3457C307.949 73.0996 311.855 67.7285 311.855 62.6504V62.5039H302.578V58.1094H326.455V62.5039H317.324V62.6992ZM338.223 56.2051V78.8125H332.803V69.877H325.234V65.5312H332.803V56.2051H338.223ZM338.223 80.668V92.1426H314.59V95.6094H339.639V99.8574H309.17V88.0898H332.803V84.9648H309.121V80.668H338.223Z" fill="black"/>
<path d="M199.99 79.2031V83.5977H159.756V79.2031H177.09V75.2969C169.033 74.7109 163.906 71.4639 163.906 66.3613C163.906 60.8438 170.205 57.4258 179.824 57.4258C189.443 57.4258 195.693 60.8438 195.742 66.3613C195.693 71.4639 190.615 74.7109 182.559 75.2969V79.2031H199.99ZM195.449 95.0723V99.4668H164.736V86.625H170.156V95.0723H195.449ZM179.824 61.7227C173.428 61.7715 169.521 63.4316 169.57 66.3613C169.521 69.4375 173.428 71 179.824 71C186.27 71 190.127 69.4375 190.127 66.3613C190.127 63.4316 186.27 61.7715 179.824 61.7227ZM238.809 76.2734V80.5703H225.723V90.6777H243.301V95.1211H202.969V90.6777H220.352V80.5703H207.852V59.4766H238.467V63.8223H213.271V76.2734H238.809Z" fill="#1F6EFF"/>
<path d="M84.6973 135.332V136.914H61.1426V135.332H72.0117V132.402C66.958 132.227 63.8379 130.381 63.8379 127.334C63.8379 124.17 67.3242 122.236 72.8906 122.236C78.4277 122.236 81.9434 124.17 81.9434 127.334C81.9434 130.366 78.8379 132.197 73.8574 132.402V135.332H84.6973ZM82.0898 145.117V146.67H64.248V139.17H66.123V145.117H82.0898ZM72.8906 123.789C68.5547 123.789 65.7129 125.195 65.7422 127.334C65.7129 129.561 68.5547 130.908 72.8906 130.908C77.2266 130.908 80.0684 129.561 80.0684 127.334C80.0684 125.195 77.2266 123.789 72.8906 123.789ZM95.0977 122.793L88.2715 148.193H86.4258L93.252 122.793H95.0977ZM101.66 136.943V140.225H115.312V136.943H117.188V146.904H99.8145V136.943H101.66ZM101.66 145.381H115.312V141.748H101.66V145.381ZM120.293 133.369V134.951H96.7383V133.369H120.293ZM109.453 123.057C109.453 126.455 114.727 129.268 118.887 129.854L118.184 131.318C114.39 130.732 110.127 128.638 108.516 125.605C106.934 128.667 102.642 130.732 98.8477 131.318L98.1445 129.854C102.363 129.238 107.578 126.543 107.578 123.057V121.709H109.453V123.057ZM143.467 133.721V135.244H135.352V142.334H146.338V143.916H122.666V142.334H133.506V135.244H125.771V123.613H143.203V125.166H127.617V133.721H143.467ZM170.654 121.445V147.285H168.867V121.445H170.654ZM165.527 122.031V145.938H163.74V133.252H160.02C159.8 138.262 157.646 141.426 154.453 141.426C151.113 141.426 148.945 137.969 148.945 132.578C148.945 127.158 151.113 123.73 154.453 123.73C157.603 123.73 159.741 126.777 159.99 131.67H163.74V122.031H165.527ZM154.453 125.459C152.168 125.459 150.674 128.301 150.703 132.578C150.674 136.826 152.168 139.697 154.453 139.697C156.768 139.697 158.262 136.826 158.262 132.578C158.262 128.301 156.768 125.459 154.453 125.459ZM202.031 121.416V131.758H206.045V133.369H202.031V147.285H200.186V121.416H202.031ZM189.17 124.199V125.752H184.453V138.76C185.728 138.745 187.515 138.613 189.463 138.174L189.668 139.756C187.119 140.312 185.068 140.342 183.691 140.342H182.607V124.199H189.17ZM197.549 124.199V125.752H192.51V138.789C194.634 138.774 196.465 138.643 198.545 138.115L198.75 139.697C196.318 140.283 194.355 140.342 191.865 140.342H190.693V124.199H197.549ZM227.578 121.445V131.875H232.031V133.486H227.578V147.314H225.732V121.445H227.578ZM210.762 139.404C215.83 139.404 219.229 139.229 223.242 138.467L223.447 140.02C219.316 140.781 215.918 140.986 210.762 140.986H208.74V131.348H218.525V125.488H208.682V123.906H220.371V132.93H210.586V139.404H210.762ZM82.998 157.445V173.178H81.2402V165.941H77.1094V172.211H75.3516V157.943H77.1094V164.359H81.2402V157.445H82.998ZM74.5605 173.617C79.834 173.646 83.1445 175.404 83.1445 178.451C83.1445 181.439 79.834 183.197 74.5605 183.197C69.2285 183.197 65.9473 181.439 65.9473 178.451C65.9473 175.404 69.2285 173.646 74.5605 173.617ZM74.5605 175.141C70.4297 175.141 67.7637 176.4 67.793 178.451C67.7637 180.443 70.4297 181.703 74.5605 181.703C78.6621 181.703 81.2988 180.443 81.3281 178.451C81.2988 176.4 78.6621 175.141 74.5605 175.141ZM64.3652 159.525V168.988C67.1924 168.974 69.9902 168.827 73.418 168.168L73.623 169.721C70.0195 170.424 67.1484 170.57 64.1309 170.57H62.5195V159.525H64.3652ZM90.2637 159.379V169.721H90.4102C94.2188 169.75 98.1152 169.486 102.48 168.578L102.686 170.16C98.2617 171.068 94.3652 171.332 90.4102 171.332H88.3887V159.379H90.2637ZM107.197 157.445V165.268H111.182V166.879H107.197V176.166H105.352V157.445H107.197ZM108.135 181.117V182.67H91.2891V174.291H93.1348V181.117H108.135ZM124.893 173.822C130.166 173.822 133.33 175.521 133.33 178.51C133.33 181.498 130.166 183.227 124.893 183.256C119.619 183.227 116.396 181.498 116.426 178.51C116.396 175.521 119.619 173.822 124.893 173.822ZM124.893 175.316C120.82 175.316 118.213 176.547 118.242 178.51C118.213 180.502 120.82 181.703 124.893 181.703C128.965 181.703 131.543 180.502 131.543 178.51C131.543 176.547 128.965 175.316 124.893 175.316ZM133.125 157.445V164.096H137.109V165.707H133.125V173.09H131.279V157.445H133.125ZM116.016 159.027V163.217H124.277V159.027H126.094V170.893H114.199V159.027H116.016ZM116.016 169.34H124.277V164.711H116.016V169.34ZM150.674 157.914C156.357 157.914 159.727 159.496 159.727 162.396C159.727 165.326 156.357 166.938 150.674 166.938C144.99 166.938 141.621 165.326 141.621 162.396C141.621 159.496 144.99 157.914 150.674 157.914ZM150.674 159.35C146.25 159.35 143.525 160.521 143.525 162.396C143.525 164.359 146.25 165.502 150.674 165.502C155.127 165.502 157.852 164.359 157.852 162.396C157.852 160.521 155.127 159.35 150.674 159.35ZM162.48 168.871V170.395H138.926V168.871H162.48ZM159.375 172.855V178.393H143.701V181.439H160.195V182.963H141.914V176.957H157.588V174.32H141.826V172.855H159.375ZM195.762 178.275V179.857H172.09V178.275H182.988V171.801H184.834V178.275H195.762ZM184.834 162.543C184.834 166.82 190.547 170.395 194.561 171.068L193.77 172.562C190.078 171.786 185.537 169.164 183.926 165.443C182.256 169.193 177.744 171.845 174.111 172.65L173.32 171.156C177.275 170.453 182.93 166.82 182.93 162.543V161.518H174.053V159.906H193.74V161.518H184.834V162.543ZM206.748 161.547C206.748 164.74 209.59 167.787 213.223 168.959L212.285 170.424C209.341 169.428 206.924 167.304 205.84 164.682C204.741 167.597 202.207 169.955 199.189 171.068L198.223 169.574C201.885 168.314 204.902 165.033 204.902 161.518V160.492H198.867V158.91H212.754V160.492H206.748V161.547ZM219.287 157.445V170.863H217.471V164.945H211.875V163.363H217.471V157.445H219.287ZM219.287 172.24V178.158H204.58V181.469H220.371V182.992H202.764V176.693H217.471V173.793H202.676V172.24H219.287ZM237.012 162.074V163.598H223.887V162.074H229.512V158.236H231.387V162.074H237.012ZM230.449 165.531C233.672 165.561 235.986 167.934 235.986 171.332C235.986 174.76 233.672 177.162 230.449 177.162C227.227 177.162 224.912 174.76 224.912 171.332C224.912 167.934 227.227 165.561 230.449 165.531ZM230.449 167.113C228.193 167.143 226.553 168.959 226.582 171.332C226.553 173.734 228.193 175.551 230.449 175.521C232.676 175.551 234.316 173.734 234.346 171.332C234.316 168.959 232.676 167.143 230.449 167.113ZM245.859 157.445V183.285H244.102V170.014H240.205V181.967H238.477V158.09H240.205V168.461H244.102V157.445H245.859ZM259.16 161.664C259.16 164.271 262.148 166.498 265.752 167.26L264.961 168.695C261.943 168.007 259.395 166.381 258.281 164.213C257.168 166.586 254.604 168.373 251.484 169.164L250.693 167.699C254.355 166.85 257.285 164.447 257.285 161.664V160.99H251.484V159.438H265.137V160.99H259.16V161.664ZM271.025 157.445V183.314H269.15V176.811H262.998V175.316H269.15V157.445H271.025ZM249.756 171.391C254.678 171.391 261.299 171.332 267.012 170.541L267.158 171.947C264.521 172.387 261.768 172.65 259.102 172.797V182.465H257.256V172.885C254.648 173.002 252.173 173.031 250.02 173.031L249.756 171.391ZM299.473 178.275V179.857H275.801V178.275H281.836V171.068C279.565 169.955 278.203 168.095 278.203 165.766C278.203 161.781 282.07 159.203 287.549 159.174C293.057 159.203 296.924 161.781 296.924 165.766C296.924 168.065 295.591 169.911 293.379 171.039V178.275H299.473ZM287.549 160.727C283.154 160.697 279.961 162.748 279.961 165.766C279.961 168.725 283.154 170.805 287.549 170.775C291.943 170.805 295.166 168.725 295.166 165.766C295.166 162.748 291.943 160.697 287.549 160.727ZM283.652 178.275H291.533V171.742C290.347 172.094 288.999 172.27 287.549 172.27C286.128 172.27 284.81 172.094 283.652 171.771V178.275Z" fill="#858585"/>
<path d="M470 157.051V125.844C470 122.838 469.997 121.335 469.632 119.936C469.308 118.697 468.776 117.524 468.057 116.464C467.245 115.268 466.116 114.276 463.854 112.297L436.854 88.6719C432.655 84.9971 430.555 83.1607 428.192 82.4618C426.109 81.8461 423.89 81.8461 421.807 82.4618C419.446 83.1602 417.349 84.9949 413.156 88.6641L386.147 112.297C383.885 114.276 382.756 115.268 381.945 116.464C381.225 117.524 380.689 118.697 380.365 119.936C380 121.335 380 122.838 380 125.844V157.051C380 162.293 380 164.913 380.856 166.98C381.998 169.737 384.187 171.93 386.943 173.072C389.011 173.928 391.632 173.928 396.874 173.928C402.115 173.928 404.739 173.928 406.807 173.072C409.563 171.93 411.751 169.738 412.893 166.981C413.749 164.914 413.75 162.293 413.75 157.051V151.426C413.75 145.213 418.787 140.176 425 140.176C431.213 140.176 436.25 145.213 436.25 151.426V157.051C436.25 162.293 436.25 164.914 437.106 166.981C438.248 169.738 440.437 171.93 443.193 173.072C445.261 173.928 447.882 173.928 453.124 173.928C458.365 173.928 460.989 173.928 463.057 173.072C465.813 171.93 468.001 169.737 469.143 166.98C469.999 164.913 470 162.293 470 157.051Z" stroke="#1F6EFF" stroke-width="10" stroke-linecap="round" stroke-linejoin="round"/>
</svg>
