<svg width="1004" height="56" viewBox="0 0 1004 56" fill="none" xmlns="http://www.w3.org/2000/svg">
<path d="M0.4 45C0.3 44.4 0.25 43.7833 0.25 43.15C0.25 40.9833 0.616667 39.05 1.35 37.35C2.11667 35.6167 3.1 34.05 4.3 32.65C5.5 31.2167 6.76667 29.9 8.1 28.7C9.46667 27.4667 10.7333 26.3 11.9 25.2C13.1 24.0667 14.0833 22.9333 14.85 21.8C15.6167 20.6667 16 19.4833 16 18.25C16 16.85 15.4833 15.7 14.45 14.8C13.4167 13.8667 12.0833 13.4 10.45 13.4C9.05 13.4 7.76667 13.6833 6.6 14.25C5.46667 14.7833 4.4 15.5167 3.4 16.45L0.9 13.4C2.23333 12.2 3.7 11.2333 5.3 10.5C6.93333 9.76667 8.81667 9.4 10.95 9.4C12.9167 9.4 14.6333 9.78333 16.1 10.55C17.5667 11.2833 18.7 12.3 19.5 13.6C20.3333 14.9 20.75 16.35 20.75 17.95C20.75 19.55 20.4 21.0333 19.7 22.4C19 23.7667 18.1 25.05 17 26.25C15.9 27.45 14.7167 28.6167 13.45 29.75C12.1833 30.85 10.9667 31.9833 9.8 33.15C8.63333 34.3167 7.63333 35.5333 6.8 36.8C6 38.0667 5.5 39.4333 5.3 40.9H20.7V45H0.4ZM40.9305 45.6C37.0305 45.6 34.0638 44.0167 32.0305 40.85C29.9971 37.65 28.9805 33.1833 28.9805 27.45C28.9805 21.6833 30.0138 17.2333 32.0805 14.1C34.1805 10.9667 37.1638 9.4 41.0305 9.4C44.9305 9.4 47.8971 10.9833 49.9305 14.15C51.9638 17.3167 52.9805 21.7833 52.9805 27.55C52.9805 33.3167 51.9305 37.7667 49.8305 40.9C47.7638 44.0333 44.7971 45.6 40.9305 45.6ZM40.9805 41.5C42.4805 41.5 43.7638 41.0667 44.8305 40.2C45.9305 39.3 46.7638 37.8333 47.3305 35.8C47.9305 33.7667 48.2305 31.0333 48.2305 27.6C48.2305 23 47.5805 19.5 46.2805 17.1C45.0138 14.7 43.2471 13.5 40.9805 13.5C39.4805 13.5 38.1805 13.95 37.0805 14.85C36.0138 15.7167 35.1805 17.1667 34.5805 19.2C34.0138 21.2 33.7305 23.9333 33.7305 27.4C33.7305 32 34.3638 35.5 35.6305 37.9C36.9305 40.3 38.7138 41.5 40.9805 41.5ZM60.3609 45C60.2609 44.4 60.2109 43.7833 60.2109 43.15C60.2109 40.9833 60.5776 39.05 61.3109 37.35C62.0776 35.6167 63.0609 34.05 64.2609 32.65C65.4609 31.2167 66.7276 29.9 68.0609 28.7C69.4276 27.4667 70.6943 26.3 71.8609 25.2C73.0609 24.0667 74.0443 22.9333 74.8109 21.8C75.5776 20.6667 75.9609 19.4833 75.9609 18.25C75.9609 16.85 75.4443 15.7 74.4109 14.8C73.3776 13.8667 72.0443 13.4 70.4109 13.4C69.0109 13.4 67.7276 13.6833 66.5609 14.25C65.4276 14.7833 64.3609 15.5167 63.3609 16.45L60.8609 13.4C62.1943 12.2 63.6609 11.2333 65.2609 10.5C66.8943 9.76667 68.7776 9.4 70.9109 9.4C72.8776 9.4 74.5943 9.78333 76.0609 10.55C77.5276 11.2833 78.6609 12.3 79.4609 13.6C80.2943 14.9 80.7109 16.35 80.7109 17.95C80.7109 19.55 80.3609 21.0333 79.6609 22.4C78.9609 23.7667 78.0609 25.05 76.9609 26.25C75.8609 27.45 74.6776 28.6167 73.4109 29.75C72.1443 30.85 70.9276 31.9833 69.7609 33.15C68.5943 34.3167 67.5943 35.5333 66.7609 36.8C65.9609 38.0667 65.4609 39.4333 65.2609 40.9H80.6609V45H60.3609ZM98.8914 45.6C96.7247 45.6 94.8414 45.3167 93.2414 44.75C91.6414 44.15 90.2747 43.4333 89.1414 42.6L91.1914 38.85C92.1247 39.55 93.2081 40.1667 94.4414 40.7C95.6747 41.2333 97.1747 41.5 98.9414 41.5C101.141 41.5 102.875 40.9167 104.141 39.75C105.441 38.5833 106.091 37.1333 106.091 35.4C106.091 34.1667 105.758 33.05 105.091 32.05C104.425 31.0167 103.391 30.1833 101.991 29.55C100.625 28.9167 98.8414 28.6 96.6414 28.6H93.8414V24.95H96.4414C98.4081 24.95 100.025 24.65 101.291 24.05C102.591 23.45 103.558 22.6667 104.191 21.7C104.825 20.7333 105.141 19.7167 105.141 18.65C105.141 17.0833 104.541 15.8167 103.341 14.85C102.175 13.8833 100.725 13.4 98.9914 13.4C97.4247 13.4 96.0247 13.6667 94.7914 14.2C93.5914 14.7 92.6081 15.2667 91.8414 15.9L89.9914 12.35C90.9914 11.6833 92.2747 11.0333 93.8414 10.4C95.4081 9.73333 97.2414 9.4 99.3414 9.4C101.541 9.4 103.408 9.8 104.941 10.6C106.475 11.4 107.641 12.4667 108.441 13.8C109.275 15.1 109.691 16.5167 109.691 18.05C109.691 20.0167 109.191 21.6667 108.191 23C107.225 24.3333 105.841 25.4333 104.041 26.3C106.141 27.1 107.775 28.2833 108.941 29.85C110.141 31.3833 110.741 33.1833 110.741 35.25C110.741 36.9833 110.308 38.65 109.441 40.25C108.608 41.8167 107.308 43.1 105.541 44.1C103.808 45.1 101.591 45.6 98.8914 45.6ZM151.422 3.7H155.572V37.2H151.422V3.7ZM138.672 9.6H152.972V12.95H138.672V9.6ZM126.672 44.5H156.772V47.9H126.672V44.5ZM126.672 34.3H130.822V46.05H126.672V34.3ZM121.022 7H125.172V28.3H121.022V7ZM121.022 27H124.422C130.872 27 136.922 26.65 143.972 25.4L144.372 28.85C137.122 30.15 131.072 30.45 124.422 30.45H121.022V27ZM138.672 18.2H152.972V21.6H138.672V18.2ZM184.108 45V41H191.258V15.75L184.558 20.8L182.108 17.45L192.458 10H195.758V41H201.708V45H184.108ZM211.289 45C211.189 44.4 211.139 43.7833 211.139 43.15C211.139 40.9833 211.505 39.05 212.239 37.35C213.005 35.6167 213.989 34.05 215.189 32.65C216.389 31.2167 217.655 29.9 218.989 28.7C220.355 27.4667 221.622 26.3 222.789 25.2C223.989 24.0667 224.972 22.9333 225.739 21.8C226.505 20.6667 226.889 19.4833 226.889 18.25C226.889 16.85 226.372 15.7 225.339 14.8C224.305 13.8667 222.972 13.4 221.339 13.4C219.939 13.4 218.655 13.6833 217.489 14.25C216.355 14.7833 215.289 15.5167 214.289 16.45L211.789 13.4C213.122 12.2 214.589 11.2333 216.189 10.5C217.822 9.76667 219.705 9.4 221.839 9.4C223.805 9.4 225.522 9.78333 226.989 10.55C228.455 11.2833 229.589 12.3 230.389 13.6C231.222 14.9 231.639 16.35 231.639 17.95C231.639 19.55 231.289 21.0333 230.589 22.4C229.889 23.7667 228.989 25.05 227.889 26.25C226.789 27.45 225.605 28.6167 224.339 29.75C223.072 30.85 221.855 31.9833 220.689 33.15C219.522 34.3167 218.522 35.5333 217.689 36.8C216.889 38.0667 216.389 39.4333 216.189 40.9H231.589V45H211.289ZM251.469 22.4H255.619V30.45H251.469V22.4ZM272.219 3.7H276.369V30.3H272.219V3.7ZM239.719 23.8L239.219 20.7C247.919 20.7 258.969 20.65 268.619 19.55L268.869 22.25C258.969 23.7 248.169 23.8 239.719 23.8ZM246.069 31.95H276.369V41.35H250.219V46.45H246.169V38.6H272.269V34.95H246.069V31.95ZM246.169 45.4H277.869V48.4H246.169V45.4ZM263.219 25.2H273.519V27.9H263.219V25.2ZM253.819 4.55C260.519 4.55 264.919 7.15 264.919 11.35C264.919 15.55 260.519 18.15 253.819 18.15C247.069 18.15 242.669 15.55 242.669 11.35C242.669 7.15 247.069 4.55 253.819 4.55ZM253.819 7.45C249.369 7.45 246.519 8.95 246.519 11.35C246.519 13.75 249.369 15.25 253.819 15.25C258.169 15.25 261.019 13.75 261.019 11.35C261.019 8.95 258.169 7.45 253.819 7.45ZM307.605 45C307.605 41.1667 307.855 37.7667 308.355 34.8C308.889 31.8 309.639 29.1 310.605 26.7C311.605 24.3 312.839 22.0833 314.305 20.05C315.772 18.0167 317.455 16.0333 319.355 14.1H302.505V10H324.705V13.6C322.405 15.8333 320.489 18.0167 318.955 20.15C317.422 22.25 316.189 24.4833 315.255 26.85C314.322 29.1833 313.655 31.8333 313.255 34.8C312.855 37.7333 312.655 41.1333 312.655 45H307.605ZM342.986 5.35C349.736 5.35 354.686 9.45 354.686 15.4C354.686 21.3 349.736 25.4 342.986 25.4C336.286 25.4 331.336 21.3 331.336 15.4C331.336 9.45 336.286 5.35 342.986 5.35ZM342.986 8.75C338.636 8.75 335.336 11.5 335.336 15.4C335.336 19.3 338.636 22 342.986 22C347.386 22 350.636 19.3 350.636 15.4C350.636 11.5 347.386 8.75 342.986 8.75ZM363.186 3.7H367.386V26.85H363.186V3.7ZM338.136 29.05H367.386V40.05H342.286V46.85H338.236V36.95H363.286V32.4H338.136V29.05ZM338.236 45H368.886V48.3H338.236V45ZM396.022 45V41H403.172V15.75L396.472 20.8L394.022 17.45L404.372 10H407.672V41H413.622V45H396.022ZM432.003 45.6C430.069 45.6 428.336 45.2667 426.803 44.6C425.269 43.9 423.869 42.9333 422.603 41.7L425.553 38.35C427.553 40.45 429.786 41.5 432.253 41.5C433.619 41.5 434.886 41.05 436.053 40.15C437.219 39.2167 438.153 37.7667 438.853 35.8C439.586 33.8333 439.953 31.3 439.953 28.2C438.919 29.1333 437.769 29.9167 436.503 30.55C435.236 31.1833 433.869 31.5 432.403 31.5C430.636 31.5 428.953 31.1 427.353 30.3C425.786 29.4667 424.503 28.2667 423.503 26.7C422.536 25.1 422.053 23.1333 422.053 20.8C422.053 18.7 422.519 16.7833 423.453 15.05C424.419 13.3167 425.753 11.95 427.453 10.95C429.153 9.91667 431.119 9.4 433.353 9.4C435.086 9.4 436.569 9.66667 437.803 10.2C439.036 10.7333 440.069 11.4333 440.903 12.3C441.703 13.1333 442.369 14.1167 442.903 15.25C443.469 16.35 443.886 17.8167 444.153 19.65C444.419 21.45 444.553 23.8 444.553 26.7C444.553 31.1333 444.003 34.75 442.903 37.55C441.803 40.3167 440.303 42.35 438.403 43.65C436.536 44.95 434.403 45.6 432.003 45.6ZM433.153 27.8C434.419 27.8 435.636 27.4833 436.803 26.85C438.003 26.2167 439.053 25.45 439.953 24.55V23.05C439.953 19.8833 439.336 17.4833 438.103 15.85C436.903 14.2167 435.269 13.4 433.203 13.4C431.303 13.4 429.686 14.0667 428.353 15.4C427.053 16.7 426.403 18.4333 426.403 20.6C426.403 22.1 426.719 23.4 427.353 24.5C427.986 25.5667 428.803 26.3833 429.803 26.95C430.836 27.5167 431.953 27.8 433.153 27.8ZM463.183 7.6H466.583V15.7C466.583 26.1 460.983 35.75 453.583 39.5L451.033 36.1C457.733 32.9 463.183 24.25 463.183 15.7V7.6ZM463.883 7.6H467.283V15.7C467.283 23.95 472.683 32.25 479.383 35.35L476.883 38.65C469.533 35.05 463.883 25.75 463.883 15.7V7.6ZM484.083 3.65H488.233V48.95H484.083V3.65ZM523.27 45.6C521.236 45.6 519.486 45.3833 518.02 44.95C516.553 44.4833 515.22 43.8333 514.02 43L516.37 39.15C517.303 39.8167 518.336 40.3833 519.47 40.85C520.603 41.2833 521.886 41.5 523.32 41.5C525.553 41.5 527.353 40.8667 528.72 39.6C530.086 38.3 530.77 36.65 530.77 34.65C530.77 32.5833 530.053 30.9 528.62 29.6C527.22 28.2667 525.203 27.6 522.57 27.6H516.37V10H533.67V14.05H520.62V23.55H523.12C525.72 23.55 527.936 24 529.77 24.9C531.636 25.8 533.053 27.05 534.02 28.65C535.02 30.25 535.52 32.0833 535.52 34.15C535.52 36.3833 535.003 38.3667 533.97 40.1C532.97 41.8 531.553 43.15 529.72 44.15C527.886 45.1167 525.736 45.6 523.27 45.6ZM552.95 45.6C551.017 45.6 549.283 45.2667 547.75 44.6C546.217 43.9 544.817 42.9333 543.55 41.7L546.5 38.35C548.5 40.45 550.733 41.5 553.2 41.5C554.567 41.5 555.833 41.05 557 40.15C558.167 39.2167 559.1 37.7667 559.8 35.8C560.533 33.8333 560.9 31.3 560.9 28.2C559.867 29.1333 558.717 29.9167 557.45 30.55C556.183 31.1833 554.817 31.5 553.35 31.5C551.583 31.5 549.9 31.1 548.3 30.3C546.733 29.4667 545.45 28.2667 544.45 26.7C543.483 25.1 543 23.1333 543 20.8C543 18.7 543.467 16.7833 544.4 15.05C545.367 13.3167 546.7 11.95 548.4 10.95C550.1 9.91667 552.067 9.4 554.3 9.4C556.033 9.4 557.517 9.66667 558.75 10.2C559.983 10.7333 561.017 11.4333 561.85 12.3C562.65 13.1333 563.317 14.1167 563.85 15.25C564.417 16.35 564.833 17.8167 565.1 19.65C565.367 21.45 565.5 23.8 565.5 26.7C565.5 31.1333 564.95 34.75 563.85 37.55C562.75 40.3167 561.25 42.35 559.35 43.65C557.483 44.95 555.35 45.6 552.95 45.6ZM554.1 27.8C555.367 27.8 556.583 27.4833 557.75 26.85C558.95 26.2167 560 25.45 560.9 24.55V23.05C560.9 19.8833 560.283 17.4833 559.05 15.85C557.85 14.2167 556.217 13.4 554.15 13.4C552.25 13.4 550.633 14.0667 549.3 15.4C548 16.7 547.35 18.4333 547.35 20.6C547.35 22.1 547.667 23.4 548.3 24.5C548.933 25.5667 549.75 26.3833 550.75 26.95C551.783 27.5167 552.9 27.8 554.1 27.8ZM572.18 27.55H613.13V30.95H572.18V27.55ZM590.88 29.25H595.03V39.65H590.88V29.25ZM577.38 44.5H608.58V47.9H577.38V44.5ZM577.38 35.65H581.48V45.8H577.38V35.65ZM577.63 5.1H581.73V10.85H603.58V5.1H607.73V23.2H577.63V5.1ZM581.73 14.1V19.85H603.58V14.1H581.73ZM653.767 10.2H667.567V13.6H653.767V10.2ZM653.767 20.6H667.567V24.05H653.767V20.6ZM645.517 6.35C652.167 6.35 657.167 10.85 657.167 17.1C657.167 23.4 652.167 27.85 645.517 27.85C638.817 27.85 633.867 23.4 633.867 17.1C633.867 10.85 638.817 6.35 645.517 6.35ZM645.517 9.9C641.117 9.9 637.867 12.85 637.867 17.1C637.867 21.35 641.117 24.3 645.517 24.3C649.917 24.3 653.217 21.35 653.217 17.1C653.217 12.85 649.917 9.9 645.517 9.9ZM666.217 3.7H670.367V30.45H666.217V3.7ZM655.517 31.5C664.817 31.5 670.567 34.7 670.567 40.15C670.567 45.65 664.817 48.8 655.517 48.8C646.167 48.8 640.417 45.65 640.417 40.15C640.417 34.7 646.167 31.5 655.517 31.5ZM655.517 34.8C648.667 34.8 644.517 36.8 644.517 40.15C644.517 43.55 648.667 45.55 655.517 45.55C662.317 45.55 666.467 43.55 666.467 40.15C666.467 36.8 662.317 34.8 655.517 34.8ZM690.163 6.05H693.613V10.65C693.613 19.35 688.713 26.55 681.163 29.5L678.963 26.15C685.763 23.65 690.163 17.55 690.163 10.65V6.05ZM690.913 6.05H694.313V10.95C694.313 17.05 698.813 22.7 705.313 24.95L703.113 28.2C695.863 25.5 690.913 18.8 690.913 10.95V6.05ZM710.113 3.7H714.263V31.1H710.113V3.7ZM713.113 15.35H720.963V18.85H713.113V15.35ZM699.863 32.35C709.113 32.35 714.713 35.4 714.713 40.6C714.713 45.8 709.113 48.8 699.863 48.8C690.613 48.8 685.013 45.8 685.013 40.6C685.013 35.4 690.613 32.35 699.863 32.35ZM699.863 35.65C693.163 35.65 689.063 37.45 689.063 40.6C689.063 43.75 693.163 45.55 699.863 45.55C706.563 45.55 710.663 43.75 710.663 40.6C710.663 37.45 706.563 35.65 699.863 35.65ZM740.199 39.7H781.149V43.15H740.199V39.7ZM758.499 28.9H762.649V40.7H758.499V28.9ZM744.999 6.9H749.099V14.95H772.149V6.9H776.249V30H744.999V6.9ZM749.099 18.3V26.6H772.149V18.3H749.099ZM819.195 3.65H823.345V48.95H819.195V3.65ZM810.595 21.05H820.195V24.45H810.595V21.05ZM787.845 34.65H791.295C799.295 34.65 804.945 34.4 811.595 33.2L811.995 36.65C805.195 37.85 799.445 38.15 791.295 38.15H787.845V34.65ZM787.745 7.9H807.945V23.75H791.945V35.7H787.845V20.35H803.845V11.3H787.745V7.9ZM877.732 3.65H881.932V48.9H877.732V3.65ZM880.782 22H889.132V25.45H880.782V22ZM866.182 8.55H870.232C870.232 21.4 864.332 33 849.732 40.35L847.432 37.15C859.932 30.8 866.182 21.15 866.182 9.2V8.55ZM849.532 8.55H868.332V11.95H849.532V8.55ZM926.078 3.7H930.228V48.9H926.078V3.7ZM912.828 8.55H916.928C916.928 21.65 911.028 33.1 895.928 40.5L893.728 37.15C906.778 30.85 912.828 21.25 912.828 9.25V8.55ZM895.778 8.55H914.628V11.95H895.778V8.55Z" fill="black"/>
<path d="M973.222 19.6667L981.556 28L973.222 36.3333M1001 28C1001 14.1929 989.807 3 976 3C962.193 3 951 14.1929 951 28C951 41.8071 962.193 53 976 53C989.807 53 1001 41.8071 1001 28Z" stroke="black" stroke-width="5" stroke-linecap="round" stroke-linejoin="round"/>
</svg>
