<svg width="931" height="46" viewBox="0 0 931 46" fill="none" xmlns="http://www.w3.org/2000/svg">
<path d="M0.4 42C0.3 41.4 0.25 40.7833 0.25 40.15C0.25 37.9833 0.616667 36.05 1.35 34.35C2.11667 32.6167 3.1 31.05 4.3 29.65C5.5 28.2167 6.76667 26.9 8.1 25.7C9.46667 24.4667 10.7333 23.3 11.9 22.2C13.1 21.0667 14.0833 19.9333 14.85 18.8C15.6167 17.6667 16 16.4833 16 15.25C16 13.85 15.4833 12.7 14.45 11.8C13.4167 10.8667 12.0833 10.4 10.45 10.4C9.05 10.4 7.76667 10.6833 6.6 11.25C5.46667 11.7833 4.4 12.5167 3.4 13.45L0.9 10.4C2.23333 9.2 3.7 8.23333 5.3 7.5C6.93333 6.76667 8.81667 6.4 10.95 6.4C12.9167 6.4 14.6333 6.78333 16.1 7.55C17.5667 8.28333 18.7 9.3 19.5 10.6C20.3333 11.9 20.75 13.35 20.75 14.95C20.75 16.55 20.4 18.0333 19.7 19.4C19 20.7667 18.1 22.05 17 23.25C15.9 24.45 14.7167 25.6167 13.45 26.75C12.1833 27.85 10.9667 28.9833 9.8 30.15C8.63333 31.3167 7.63333 32.5333 6.8 33.8C6 35.0667 5.5 36.4333 5.3 37.9H20.7V42H0.4ZM40.9305 42.6C37.0305 42.6 34.0638 41.0167 32.0305 37.85C29.9971 34.65 28.9805 30.1833 28.9805 24.45C28.9805 18.6833 30.0138 14.2333 32.0805 11.1C34.1805 7.96667 37.1638 6.4 41.0305 6.4C44.9305 6.4 47.8971 7.98333 49.9305 11.15C51.9638 14.3167 52.9805 18.7833 52.9805 24.55C52.9805 30.3167 51.9305 34.7667 49.8305 37.9C47.7638 41.0333 44.7971 42.6 40.9305 42.6ZM40.9805 38.5C42.4805 38.5 43.7638 38.0667 44.8305 37.2C45.9305 36.3 46.7638 34.8333 47.3305 32.8C47.9305 30.7667 48.2305 28.0333 48.2305 24.6C48.2305 20 47.5805 16.5 46.2805 14.1C45.0138 11.7 43.2471 10.5 40.9805 10.5C39.4805 10.5 38.1805 10.95 37.0805 11.85C36.0138 12.7167 35.1805 14.1667 34.5805 16.2C34.0138 18.2 33.7305 20.9333 33.7305 24.4C33.7305 29 34.3638 32.5 35.6305 34.9C36.9305 37.3 38.7138 38.5 40.9805 38.5ZM60.3609 42C60.2609 41.4 60.2109 40.7833 60.2109 40.15C60.2109 37.9833 60.5776 36.05 61.3109 34.35C62.0776 32.6167 63.0609 31.05 64.2609 29.65C65.4609 28.2167 66.7276 26.9 68.0609 25.7C69.4276 24.4667 70.6943 23.3 71.8609 22.2C73.0609 21.0667 74.0443 19.9333 74.8109 18.8C75.5776 17.6667 75.9609 16.4833 75.9609 15.25C75.9609 13.85 75.4443 12.7 74.4109 11.8C73.3776 10.8667 72.0443 10.4 70.4109 10.4C69.0109 10.4 67.7276 10.6833 66.5609 11.25C65.4276 11.7833 64.3609 12.5167 63.3609 13.45L60.8609 10.4C62.1943 9.2 63.6609 8.23333 65.2609 7.5C66.8943 6.76667 68.7776 6.4 70.9109 6.4C72.8776 6.4 74.5943 6.78333 76.0609 7.55C77.5276 8.28333 78.6609 9.3 79.4609 10.6C80.2943 11.9 80.7109 13.35 80.7109 14.95C80.7109 16.55 80.3609 18.0333 79.6609 19.4C78.9609 20.7667 78.0609 22.05 76.9609 23.25C75.8609 24.45 74.6776 25.6167 73.4109 26.75C72.1443 27.85 70.9276 28.9833 69.7609 30.15C68.5943 31.3167 67.5943 32.5333 66.7609 33.8C65.9609 35.0667 65.4609 36.4333 65.2609 37.9H80.6609V42H60.3609ZM98.8914 42.6C96.7247 42.6 94.8414 42.3167 93.2414 41.75C91.6414 41.15 90.2747 40.4333 89.1414 39.6L91.1914 35.85C92.1247 36.55 93.2081 37.1667 94.4414 37.7C95.6747 38.2333 97.1747 38.5 98.9414 38.5C101.141 38.5 102.875 37.9167 104.141 36.75C105.441 35.5833 106.091 34.1333 106.091 32.4C106.091 31.1667 105.758 30.05 105.091 29.05C104.425 28.0167 103.391 27.1833 101.991 26.55C100.625 25.9167 98.8414 25.6 96.6414 25.6H93.8414V21.95H96.4414C98.4081 21.95 100.025 21.65 101.291 21.05C102.591 20.45 103.558 19.6667 104.191 18.7C104.825 17.7333 105.141 16.7167 105.141 15.65C105.141 14.0833 104.541 12.8167 103.341 11.85C102.175 10.8833 100.725 10.4 98.9914 10.4C97.4247 10.4 96.0247 10.6667 94.7914 11.2C93.5914 11.7 92.6081 12.2667 91.8414 12.9L89.9914 9.35C90.9914 8.68333 92.2747 8.03333 93.8414 7.4C95.4081 6.73333 97.2414 6.4 99.3414 6.4C101.541 6.4 103.408 6.8 104.941 7.6C106.475 8.4 107.641 9.46667 108.441 10.8C109.275 12.1 109.691 13.5167 109.691 15.05C109.691 17.0167 109.191 18.6667 108.191 20C107.225 21.3333 105.841 22.4333 104.041 23.3C106.141 24.1 107.775 25.2833 108.941 26.85C110.141 28.3833 110.741 30.1833 110.741 32.25C110.741 33.9833 110.308 35.65 109.441 37.25C108.608 38.8167 107.308 40.1 105.541 41.1C103.808 42.1 101.591 42.6 98.8914 42.6ZM151.422 0.699998H155.572V34.2H151.422V0.699998ZM138.672 6.6H152.972V9.95H138.672V6.6ZM126.672 41.5H156.772V44.9H126.672V41.5ZM126.672 31.3H130.822V43.05H126.672V31.3ZM121.022 4H125.172V25.3H121.022V4ZM121.022 24H124.422C130.872 24 136.922 23.65 143.972 22.4L144.372 25.85C137.122 27.15 131.072 27.45 124.422 27.45H121.022V24ZM138.672 15.2H152.972V18.6H138.672V15.2ZM184.108 42V38H191.258V12.75L184.558 17.8L182.108 14.45L192.458 7H195.758V38H201.708V42H184.108ZM211.289 42C211.189 41.4 211.139 40.7833 211.139 40.15C211.139 37.9833 211.505 36.05 212.239 34.35C213.005 32.6167 213.989 31.05 215.189 29.65C216.389 28.2167 217.655 26.9 218.989 25.7C220.355 24.4667 221.622 23.3 222.789 22.2C223.989 21.0667 224.972 19.9333 225.739 18.8C226.505 17.6667 226.889 16.4833 226.889 15.25C226.889 13.85 226.372 12.7 225.339 11.8C224.305 10.8667 222.972 10.4 221.339 10.4C219.939 10.4 218.655 10.6833 217.489 11.25C216.355 11.7833 215.289 12.5167 214.289 13.45L211.789 10.4C213.122 9.2 214.589 8.23333 216.189 7.5C217.822 6.76667 219.705 6.4 221.839 6.4C223.805 6.4 225.522 6.78333 226.989 7.55C228.455 8.28333 229.589 9.3 230.389 10.6C231.222 11.9 231.639 13.35 231.639 14.95C231.639 16.55 231.289 18.0333 230.589 19.4C229.889 20.7667 228.989 22.05 227.889 23.25C226.789 24.45 225.605 25.6167 224.339 26.75C223.072 27.85 221.855 28.9833 220.689 30.15C219.522 31.3167 218.522 32.5333 217.689 33.8C216.889 35.0667 216.389 36.4333 216.189 37.9H231.589V42H211.289ZM251.469 19.4H255.619V27.45H251.469V19.4ZM272.219 0.699998H276.369V27.3H272.219V0.699998ZM239.719 20.8L239.219 17.7C247.919 17.7 258.969 17.65 268.619 16.55L268.869 19.25C258.969 20.7 248.169 20.8 239.719 20.8ZM246.069 28.95H276.369V38.35H250.219V43.45H246.169V35.6H272.269V31.95H246.069V28.95ZM246.169 42.4H277.869V45.4H246.169V42.4ZM263.219 22.2H273.519V24.9H263.219V22.2ZM253.819 1.55C260.519 1.55 264.919 4.15 264.919 8.35C264.919 12.55 260.519 15.15 253.819 15.15C247.069 15.15 242.669 12.55 242.669 8.35C242.669 4.15 247.069 1.55 253.819 1.55ZM253.819 4.45C249.369 4.45 246.519 5.95 246.519 8.35C246.519 10.75 249.369 12.25 253.819 12.25C258.169 12.25 261.019 10.75 261.019 8.35C261.019 5.95 258.169 4.45 253.819 4.45ZM307.605 42C307.605 38.1667 307.855 34.7667 308.355 31.8C308.889 28.8 309.639 26.1 310.605 23.7C311.605 21.3 312.839 19.0833 314.305 17.05C315.772 15.0167 317.455 13.0333 319.355 11.1H302.505V7H324.705V10.6C322.405 12.8333 320.489 15.0167 318.955 17.15C317.422 19.25 316.189 21.4833 315.255 23.85C314.322 26.1833 313.655 28.8333 313.255 31.8C312.855 34.7333 312.655 38.1333 312.655 42H307.605ZM342.986 2.35C349.736 2.35 354.686 6.45 354.686 12.4C354.686 18.3 349.736 22.4 342.986 22.4C336.286 22.4 331.336 18.3 331.336 12.4C331.336 6.45 336.286 2.35 342.986 2.35ZM342.986 5.75C338.636 5.75 335.336 8.5 335.336 12.4C335.336 16.3 338.636 19 342.986 19C347.386 19 350.636 16.3 350.636 12.4C350.636 8.5 347.386 5.75 342.986 5.75ZM363.186 0.699998H367.386V23.85H363.186V0.699998ZM338.136 26.05H367.386V37.05H342.286V43.85H338.236V33.95H363.286V29.4H338.136V26.05ZM338.236 42H368.886V45.3H338.236V42ZM393.222 42C393.122 41.4 393.072 40.7833 393.072 40.15C393.072 37.9833 393.439 36.05 394.172 34.35C394.939 32.6167 395.922 31.05 397.122 29.65C398.322 28.2167 399.589 26.9 400.922 25.7C402.289 24.4667 403.556 23.3 404.722 22.2C405.922 21.0667 406.906 19.9333 407.672 18.8C408.439 17.6667 408.822 16.4833 408.822 15.25C408.822 13.85 408.306 12.7 407.272 11.8C406.239 10.8667 404.906 10.4 403.272 10.4C401.872 10.4 400.589 10.6833 399.422 11.25C398.289 11.7833 397.222 12.5167 396.222 13.45L393.722 10.4C395.056 9.2 396.522 8.23333 398.122 7.5C399.756 6.76667 401.639 6.4 403.772 6.4C405.739 6.4 407.456 6.78333 408.922 7.55C410.389 8.28333 411.522 9.3 412.322 10.6C413.156 11.9 413.572 13.35 413.572 14.95C413.572 16.55 413.222 18.0333 412.522 19.4C411.822 20.7667 410.922 22.05 409.822 23.25C408.722 24.45 407.539 25.6167 406.272 26.75C405.006 27.85 403.789 28.9833 402.622 30.15C401.456 31.3167 400.456 32.5333 399.622 33.8C398.822 35.0667 398.322 36.4333 398.122 37.9H413.522V42H393.222ZM433.753 42.6C429.853 42.6 426.886 41.0167 424.853 37.85C422.819 34.65 421.803 30.1833 421.803 24.45C421.803 18.6833 422.836 14.2333 424.903 11.1C427.003 7.96667 429.986 6.4 433.853 6.4C437.753 6.4 440.719 7.98333 442.753 11.15C444.786 14.3167 445.803 18.7833 445.803 24.55C445.803 30.3167 444.753 34.7667 442.653 37.9C440.586 41.0333 437.619 42.6 433.753 42.6ZM433.803 38.5C435.303 38.5 436.586 38.0667 437.653 37.2C438.753 36.3 439.586 34.8333 440.153 32.8C440.753 30.7667 441.053 28.0333 441.053 24.6C441.053 20 440.403 16.5 439.103 14.1C437.836 11.7 436.069 10.5 433.803 10.5C432.303 10.5 431.003 10.95 429.903 11.85C428.836 12.7167 428.003 14.1667 427.403 16.2C426.836 18.2 426.553 20.9333 426.553 24.4C426.553 29 427.186 32.5 428.453 34.9C429.753 37.3 431.536 38.5 433.803 38.5ZM463.183 4.6H466.583V12.7C466.583 23.1 460.983 32.75 453.583 36.5L451.033 33.1C457.733 29.9 463.183 21.25 463.183 12.7V4.6ZM463.883 4.6H467.283V12.7C467.283 20.95 472.683 29.25 479.383 32.35L476.883 35.65C469.533 32.05 463.883 22.75 463.883 12.7V4.6ZM484.083 0.649999H488.233V45.95H484.083V0.649999ZM524.72 42.6C520.82 42.6 517.853 41.0167 515.82 37.85C513.786 34.65 512.77 30.1833 512.77 24.45C512.77 18.6833 513.803 14.2333 515.87 11.1C517.97 7.96667 520.953 6.4 524.82 6.4C528.72 6.4 531.686 7.98333 533.72 11.15C535.753 14.3167 536.77 18.7833 536.77 24.55C536.77 30.3167 535.72 34.7667 533.62 37.9C531.553 41.0333 528.586 42.6 524.72 42.6ZM524.77 38.5C526.27 38.5 527.553 38.0667 528.62 37.2C529.72 36.3 530.553 34.8333 531.12 32.8C531.72 30.7667 532.02 28.0333 532.02 24.6C532.02 20 531.37 16.5 530.07 14.1C528.803 11.7 527.036 10.5 524.77 10.5C523.27 10.5 521.97 10.95 520.87 11.85C519.803 12.7167 518.97 14.1667 518.37 16.2C517.803 18.2 517.52 20.9333 517.52 24.4C517.52 29 518.153 32.5 519.42 34.9C520.72 37.3 522.503 38.5 524.77 38.5ZM552.7 42.6C550.533 42.6 548.65 42.3167 547.05 41.75C545.45 41.15 544.083 40.4333 542.95 39.6L545 35.85C545.933 36.55 547.017 37.1667 548.25 37.7C549.483 38.2333 550.983 38.5 552.75 38.5C554.95 38.5 556.683 37.9167 557.95 36.75C559.25 35.5833 559.9 34.1333 559.9 32.4C559.9 31.1667 559.567 30.05 558.9 29.05C558.233 28.0167 557.2 27.1833 555.8 26.55C554.433 25.9167 552.65 25.6 550.45 25.6H547.65V21.95H550.25C552.217 21.95 553.833 21.65 555.1 21.05C556.4 20.45 557.367 19.6667 558 18.7C558.633 17.7333 558.95 16.7167 558.95 15.65C558.95 14.0833 558.35 12.8167 557.15 11.85C555.983 10.8833 554.533 10.4 552.8 10.4C551.233 10.4 549.833 10.6667 548.6 11.2C547.4 11.7 546.417 12.2667 545.65 12.9L543.8 9.35C544.8 8.68333 546.083 8.03333 547.65 7.4C549.217 6.73333 551.05 6.4 553.15 6.4C555.35 6.4 557.217 6.8 558.75 7.6C560.283 8.4 561.45 9.46667 562.25 10.8C563.083 12.1 563.5 13.5167 563.5 15.05C563.5 17.0167 563 18.6667 562 20C561.033 21.3333 559.65 22.4333 557.85 23.3C559.95 24.1 561.583 25.2833 562.75 26.85C563.95 28.3833 564.55 30.1833 564.55 32.25C564.55 33.9833 564.117 35.65 563.25 37.25C562.417 38.8167 561.117 40.1 559.35 41.1C557.617 42.1 555.4 42.6 552.7 42.6ZM572.18 24.55H613.13V27.95H572.18V24.55ZM590.88 26.25H595.03V36.65H590.88V26.25ZM577.38 41.5H608.58V44.9H577.38V41.5ZM577.38 32.65H581.48V42.8H577.38V32.65ZM577.63 2.1H581.73V7.85H603.58V2.1H607.73V20.2H577.63V2.1ZM581.73 11.1V16.85H603.58V11.1H581.73ZM653.767 7.2H667.567V10.6H653.767V7.2ZM653.767 17.6H667.567V21.05H653.767V17.6ZM645.517 3.35C652.167 3.35 657.167 7.85 657.167 14.1C657.167 20.4 652.167 24.85 645.517 24.85C638.817 24.85 633.867 20.4 633.867 14.1C633.867 7.85 638.817 3.35 645.517 3.35ZM645.517 6.9C641.117 6.9 637.867 9.85 637.867 14.1C637.867 18.35 641.117 21.3 645.517 21.3C649.917 21.3 653.217 18.35 653.217 14.1C653.217 9.85 649.917 6.9 645.517 6.9ZM666.217 0.699998H670.367V27.45H666.217V0.699998ZM655.517 28.5C664.817 28.5 670.567 31.7 670.567 37.15C670.567 42.65 664.817 45.8 655.517 45.8C646.167 45.8 640.417 42.65 640.417 37.15C640.417 31.7 646.167 28.5 655.517 28.5ZM655.517 31.8C648.667 31.8 644.517 33.8 644.517 37.15C644.517 40.55 648.667 42.55 655.517 42.55C662.317 42.55 666.467 40.55 666.467 37.15C666.467 33.8 662.317 31.8 655.517 31.8ZM690.163 3.05H693.613V7.65C693.613 16.35 688.713 23.55 681.163 26.5L678.963 23.15C685.763 20.65 690.163 14.55 690.163 7.65V3.05ZM690.913 3.05H694.313V7.95C694.313 14.05 698.813 19.7 705.313 21.95L703.113 25.2C695.863 22.5 690.913 15.8 690.913 7.95V3.05ZM710.113 0.699998H714.263V28.1H710.113V0.699998ZM713.113 12.35H720.963V15.85H713.113V12.35ZM699.863 29.35C709.113 29.35 714.713 32.4 714.713 37.6C714.713 42.8 709.113 45.8 699.863 45.8C690.613 45.8 685.013 42.8 685.013 37.6C685.013 32.4 690.613 29.35 699.863 29.35ZM699.863 32.65C693.163 32.65 689.063 34.45 689.063 37.6C689.063 40.75 693.163 42.55 699.863 42.55C706.563 42.55 710.663 40.75 710.663 37.6C710.663 34.45 706.563 32.65 699.863 32.65ZM740.199 36.7H781.149V40.15H740.199V36.7ZM758.499 25.9H762.649V37.7H758.499V25.9ZM744.999 3.9H749.099V11.95H772.149V3.9H776.249V27H744.999V3.9ZM749.099 15.3V23.6H772.149V15.3H749.099ZM819.195 0.649999H823.345V45.95H819.195V0.649999ZM810.595 18.05H820.195V21.45H810.595V18.05ZM787.845 31.65H791.295C799.295 31.65 804.945 31.4 811.595 30.2L811.995 33.65C805.195 34.85 799.445 35.15 791.295 35.15H787.845V31.65ZM787.745 4.9H807.945V20.75H791.945V32.7H787.845V17.35H803.845V8.3H787.745V4.9ZM877.732 0.649999H881.932V45.9H877.732V0.649999ZM880.782 19H889.132V22.45H880.782V19ZM866.182 5.55H870.232C870.232 18.4 864.332 30 849.732 37.35L847.432 34.15C859.932 27.8 866.182 18.15 866.182 6.2V5.55ZM849.532 5.55H868.332V8.95H849.532V5.55ZM926.078 0.699998H930.228V45.9H926.078V0.699998ZM912.828 5.55H916.928C916.928 18.65 911.028 30.1 895.928 37.5L893.728 34.15C906.778 27.85 912.828 18.25 912.828 6.25V5.55ZM895.778 5.55H914.628V8.95H895.778V5.55Z" fill="black"/>
</svg>
