<svg width="648" height="80" viewBox="0 0 648 80" fill="none" xmlns="http://www.w3.org/2000/svg">
<path d="M24.3613 26.8555C24.3613 36.9727 30.3086 47.6367 40.2891 51.8066L36.1191 57.8223C28.8047 54.6777 23.4727 48.1836 20.6699 40.3223C17.7988 48.7988 12.3984 55.9082 5.15234 59.3262L0.777344 53.3789C10.5527 48.8672 16.6367 37.3828 16.6367 26.8555V21.6602H3.0332V15.3711H37.8965V21.6602H24.3613V26.8555ZM52.457 9.28711V71.084H44.8008V9.28711H52.457ZM111.109 12.2949V17.0801C111.109 21.8652 111.109 27.334 109.605 34.6484H118.014V40.8008H61.5488V34.6484H101.949C103.385 27.9834 103.521 22.8906 103.521 18.3789H68.5215V12.2949H111.109ZM111.041 47.9785V70.332H68.3164V47.9785H111.041ZM75.7676 53.9258V64.1797H103.521V53.9258H75.7676ZM195.055 44.082V50.3711H170.445V71.084H162.926V50.3711H138.59V44.082H195.055ZM166.686 11.4746C179.811 11.543 188.971 16.875 188.971 25.3516C188.971 33.7598 179.811 39.0234 166.686 39.0234C153.492 39.0234 144.469 33.7598 144.537 25.3516C144.469 16.875 153.492 11.543 166.686 11.4746ZM166.686 17.627C157.936 17.627 152.262 20.498 152.33 25.3516C152.262 30.1367 157.936 33.0078 166.686 33.0078C175.436 33.0078 181.109 30.1367 181.109 25.3516C181.109 20.498 175.436 17.627 166.686 17.627ZM250.631 9.28711V71.1523H243.111V9.28711H250.631ZM231.627 14.6875V37.8613H210.367V50.3027C220.108 50.2344 228.517 49.7559 238.121 48.1152L238.805 54.3359C228.277 56.1816 219.049 56.5234 207.975 56.5234H202.574V31.8457H223.902V20.8398H202.506V14.6875H231.627ZM312.701 12.9785V19.0625H299.713C299.815 26.3086 305.147 33.2471 314.889 36.0156L311.061 41.9629C303.917 39.8438 298.756 35.3662 295.953 29.6582C293.185 35.8105 287.887 40.6641 280.504 42.9883L276.676 37.041C286.554 34.1357 291.886 26.7188 292.057 19.0625H278.727V12.9785H312.701ZM327.74 9.28711V42.7832H320.084V9.28711H327.74ZM294.381 45.5176V51.875H320.152V45.5176H327.74V70.332H286.861V45.5176H294.381ZM294.381 64.1797H320.152V57.7539H294.381V64.1797ZM389.264 32.1875C388.238 26.2402 383.453 22.8223 377.438 22.8223C369.303 22.8223 363.629 29.043 363.629 40.2539C363.629 51.6016 369.371 57.6855 377.438 57.6855C383.316 57.6855 388.102 54.4043 389.264 48.5938H398.219C396.852 58.0957 389.059 65.6836 377.301 65.6836C364.244 65.6836 354.674 56.1816 354.674 40.2539C354.674 24.2578 364.381 14.8242 377.301 14.8242C388.238 14.8242 396.715 21.1816 398.219 32.1875H389.264ZM439.234 32.1875C438.209 26.2402 433.424 22.8223 427.408 22.8223C419.273 22.8223 413.6 29.043 413.6 40.2539C413.6 51.6016 419.342 57.6855 427.408 57.6855C433.287 57.6855 438.072 54.4043 439.234 48.5938H448.189C446.822 58.0957 439.029 65.6836 427.271 65.6836C414.215 65.6836 404.645 56.1816 404.645 40.2539C404.645 24.2578 414.352 14.8242 427.271 14.8242C438.209 14.8242 446.686 21.1816 448.189 32.1875H439.234ZM453.658 22.959V15.5078H493.102V22.959H477.857V65H468.971V22.959H453.658ZM506.637 15.5078L519.488 54.541H520.035L532.955 15.5078H542.73L525.23 65H514.293L496.861 15.5078H506.637Z" fill="white"/>
<path d="M604.111 28.3333L615.778 40L604.111 51.6667M643 40C643 20.67 627.33 5 608 5C588.67 5 573 20.67 573 40C573 59.33 588.67 75 608 75C627.33 75 643 59.33 643 40Z" stroke="white" stroke-width="10" stroke-linecap="round" stroke-linejoin="round"/>
</svg>
